<mxfile host="app.diagrams.net" modified="2022-12-04T09:51:16.085Z" agent="5.0 (Macintosh; Intel Mac OS X 10_15_7) AppleWebKit/537.36 (KHTML, like Gecko) Chrome/108.0.0.0 Safari/537.36" etag="1VGlsVy8rIczgCGSFTEM" version="20.6.0" type="github">
  <diagram name="Page-1" id="13e1069c-82ec-6db2-03f1-153e76fe0fe0">
    <mxGraphModel dx="1002" dy="-729" grid="1" gridSize="10" guides="1" tooltips="1" connect="1" arrows="1" fold="1" page="1" pageScale="1" pageWidth="1100" pageHeight="850" math="0" shadow="0">
      <root>
        <mxCell id="0" />
        <mxCell id="1" parent="0" />
        <mxCell id="kNI0v0t7k7GR0xS2gEk9-157" style="edgeStyle=orthogonalEdgeStyle;orthogonalLoop=1;jettySize=auto;html=1;entryX=0.457;entryY=-0.018;entryDx=0;entryDy=0;entryPerimeter=0;fontFamily=Helvetica;fontSize=11;startArrow=none;startFill=0;endArrow=classicThin;endFill=1;dashed=1;rounded=0;" parent="1" source="kNI0v0t7k7GR0xS2gEk9-138" target="kNI0v0t7k7GR0xS2gEk9-145" edge="1">
          <mxGeometry relative="1" as="geometry" />
        </mxCell>
        <mxCell id="kNI0v0t7k7GR0xS2gEk9-159" style="edgeStyle=orthogonalEdgeStyle;orthogonalLoop=1;jettySize=auto;html=1;entryX=0.5;entryY=0;entryDx=0;entryDy=0;dashed=1;fontFamily=Helvetica;fontSize=11;startArrow=none;startFill=0;endArrow=classicThin;endFill=1;rounded=0;exitX=0.5;exitY=1;exitDx=0;exitDy=0;" parent="1" source="kNI0v0t7k7GR0xS2gEk9-138" target="kNI0v0t7k7GR0xS2gEk9-154" edge="1">
          <mxGeometry relative="1" as="geometry" />
        </mxCell>
        <mxCell id="5tz5ZhoiL6qwF5Wk2m4U-25" style="edgeStyle=orthogonalEdgeStyle;rounded=0;orthogonalLoop=1;jettySize=auto;html=1;entryX=0.5;entryY=0;entryDx=0;entryDy=0;fontSize=17;startArrow=none;startFill=0;endArrow=openThin;endFill=0;dashed=1;" parent="1" source="kNI0v0t7k7GR0xS2gEk9-138" target="5tz5ZhoiL6qwF5Wk2m4U-13" edge="1">
          <mxGeometry relative="1" as="geometry" />
        </mxCell>
        <mxCell id="kNI0v0t7k7GR0xS2gEk9-138" value="&lt;p style=&quot;text-align: center; margin: 4px 0px 0px;&quot;&gt;&lt;span style=&quot;font-weight: 700;&quot;&gt;&amp;lt;&amp;lt;Design&amp;gt;&amp;gt;&lt;/span&gt;&lt;/p&gt;&lt;p style=&quot;text-align: center; margin: 4px 0px 0px;&quot;&gt;&lt;span style=&quot;font-weight: 700; background-color: initial;&quot;&gt;:RecommendationGUI&lt;/span&gt;&lt;/p&gt;&lt;hr size=&quot;1&quot;&gt;&lt;p&gt;&lt;/p&gt;&lt;p&gt;&lt;/p&gt;&lt;hr size=&quot;1&quot;&gt;&lt;p style=&quot;margin:0px;margin-left:4px;&quot;&gt;+&amp;nbsp;onClick()&lt;br&gt;&lt;/p&gt;&lt;p style=&quot;margin:0px;margin-left:4px;&quot;&gt;&lt;span style=&quot;font-family: Verdana; text-align: center;&quot;&gt;+ CapturePhoto()&lt;/span&gt;&lt;br&gt;&lt;/p&gt;&lt;div style=&quot;padding: 0px; margin: 0px;&quot;&gt;&lt;br style=&quot;padding: 0px; margin: 0px;&quot;&gt;&lt;/div&gt;" style="verticalAlign=top;align=left;overflow=fill;fontSize=12;fontFamily=Helvetica;html=1;rounded=0;fillStyle=solid;strokeColor=#9673a6;fillColor=#e1d5e7;" parent="1" vertex="1">
          <mxGeometry x="2300" y="2340" width="190" height="140" as="geometry" />
        </mxCell>
        <mxCell id="kNI0v0t7k7GR0xS2gEk9-161" style="edgeStyle=orthogonalEdgeStyle;rounded=0;orthogonalLoop=1;jettySize=auto;html=1;entryX=0.5;entryY=1;entryDx=0;entryDy=0;dashed=1;fontFamily=Helvetica;fontSize=11;startArrow=none;startFill=0;endArrow=classicThin;endFill=1;exitX=0.5;exitY=0;exitDx=0;exitDy=0;" parent="1" source="kNI0v0t7k7GR0xS2gEk9-144" target="kNI0v0t7k7GR0xS2gEk9-155" edge="1">
          <mxGeometry relative="1" as="geometry" />
        </mxCell>
        <mxCell id="kNI0v0t7k7GR0xS2gEk9-144" value="&lt;p style=&quot;margin:0px;margin-top:4px;text-align:center;&quot;&gt;&lt;span style=&quot;font-weight: 700;&quot;&gt;Product&lt;/span&gt;&lt;br&gt;&lt;/p&gt;&lt;hr size=&quot;1&quot;&gt;&lt;p style=&quot;margin:0px;margin-left:4px;&quot;&gt;&lt;span style=&quot;background-color: initial;&quot;&gt;- Brand&amp;nbsp;&lt;/span&gt;&lt;br&gt;&lt;/p&gt;&lt;p style=&quot;margin:0px;margin-left:4px;&quot;&gt;- Category&lt;br style=&quot;padding: 0px; margin: 0px;&quot;&gt;- ProductPrice&lt;br style=&quot;padding: 0px; margin: 0px;&quot;&gt;- Color&lt;/p&gt;&lt;p style=&quot;margin:0px;margin-left:4px;&quot;&gt;- Notification&lt;/p&gt;&lt;p style=&quot;margin:0px;margin-left:4px;&quot;&gt;- Ingredient&lt;/p&gt;&lt;hr size=&quot;1&quot;&gt;&lt;p style=&quot;margin:0px;margin-left:4px;&quot;&gt;&lt;span style=&quot;font-family: Verdana; text-align: center;&quot;&gt;+ displayProductList()&lt;/span&gt;&lt;br&gt;&lt;/p&gt;" style="verticalAlign=top;align=left;overflow=fill;fontSize=12;fontFamily=Helvetica;html=1;rounded=0;fillStyle=solid;strokeColor=#6c8ebf;fillColor=#dae8fc;" parent="1" vertex="1">
          <mxGeometry x="3350" y="2621" width="190" height="190" as="geometry" />
        </mxCell>
        <mxCell id="kNI0v0t7k7GR0xS2gEk9-145" value="&lt;p style=&quot;margin:0px;margin-top:4px;text-align:center;&quot;&gt;&lt;b&gt;Survey&lt;/b&gt;&lt;/p&gt;&lt;hr size=&quot;1&quot;&gt;&lt;p style=&quot;margin:0px;margin-left:4px;&quot;&gt;&lt;span style=&quot;background-color: initial;&quot;&gt;- Condition&lt;br&gt;&lt;/span&gt;&lt;/p&gt;&lt;p style=&quot;margin:0px;margin-left:4px;&quot;&gt;&lt;span style=&quot;background-color: initial;&quot;&gt;- Brand&lt;/span&gt;&lt;/p&gt;&lt;p style=&quot;margin:0px;margin-left:4px;&quot;&gt;&lt;span style=&quot;background-color: initial;&quot;&gt;- PriceRange&lt;/span&gt;&lt;/p&gt;&lt;p style=&quot;margin:0px;margin-left:4px;&quot;&gt;&lt;span style=&quot;background-color: initial;&quot;&gt;- Purpose&lt;/span&gt;&lt;/p&gt;&lt;p style=&quot;margin:0px;margin-left:4px;&quot;&gt;&lt;span style=&quot;background-color: initial;&quot;&gt;- Occasion&lt;/span&gt;&lt;/p&gt;&lt;hr size=&quot;1&quot;&gt;&lt;p style=&quot;margin:0px;margin-left:4px;&quot;&gt;&lt;/p&gt;&lt;span style=&quot;font-family: Verdana; text-align: center;&quot;&gt;+ getSurveyResult(Product,Lipstick)&lt;br&gt;+&amp;nbsp;&lt;/span&gt;&lt;span style=&quot;font-family: Verdana; text-align: center;&quot;&gt;onClick&lt;/span&gt;&lt;span style=&quot;font-family: Verdana; text-align: center;&quot;&gt;(Survey)&lt;/span&gt;&lt;span style=&quot;font-family: Verdana; text-align: center;&quot;&gt;&lt;br&gt;&lt;/span&gt;" style="verticalAlign=top;align=left;overflow=fill;fontSize=12;fontFamily=Helvetica;html=1;rounded=0;fillStyle=solid;strokeColor=#6c8ebf;fillColor=#dae8fc;" parent="1" vertex="1">
          <mxGeometry x="2090" y="2620" width="230" height="190" as="geometry" />
        </mxCell>
        <mxCell id="kNI0v0t7k7GR0xS2gEk9-160" style="edgeStyle=orthogonalEdgeStyle;rounded=0;orthogonalLoop=1;jettySize=auto;html=1;exitX=0.5;exitY=1;exitDx=0;exitDy=0;entryX=0.5;entryY=0;entryDx=0;entryDy=0;dashed=1;fontFamily=Helvetica;fontSize=11;startArrow=none;startFill=0;endArrow=classicThin;endFill=1;" parent="1" source="kNI0v0t7k7GR0xS2gEk9-154" target="kNI0v0t7k7GR0xS2gEk9-156" edge="1">
          <mxGeometry relative="1" as="geometry" />
        </mxCell>
        <mxCell id="kNI0v0t7k7GR0xS2gEk9-154" value="&lt;p style=&quot;margin:0px;margin-top:4px;text-align:center;&quot;&gt;&lt;b&gt;FaceAnalyze&lt;/b&gt;&lt;/p&gt;&lt;hr size=&quot;1&quot;&gt;&lt;p style=&quot;margin:0px;margin-left:4px;&quot;&gt;- FaceShape&lt;br style=&quot;padding: 0px; margin: 0px;&quot;&gt;- SkinTone&lt;br style=&quot;padding: 0px; margin: 0px;&quot;&gt;- DarkSpot&lt;br style=&quot;padding: 0px; margin: 0px;&quot;&gt;- SkinType&lt;br style=&quot;padding: 0px; margin: 0px;&quot;&gt;- LipColor&lt;br style=&quot;padding: 0px; margin: 0px;&quot;&gt;- Eyebrow&lt;br&gt;&lt;/p&gt;&lt;p style=&quot;margin:0px;margin-left:4px;&quot;&gt;- SurveyResult&lt;/p&gt;&lt;p style=&quot;margin:0px;margin-left:4px;&quot;&gt;- Product&lt;/p&gt;&lt;hr size=&quot;1&quot;&gt;&lt;p style=&quot;margin:0px;margin-left:4px;&quot;&gt;&lt;/p&gt;&lt;span style=&quot;font-family: Verdana; text-align: center;&quot;&gt;+&amp;nbsp;&lt;/span&gt;&lt;span style=&quot;font-family: Verdana; text-align: center;&quot;&gt;getPhotoAnalyze()&lt;/span&gt;" style="verticalAlign=top;align=left;overflow=fill;fontSize=12;fontFamily=Helvetica;html=1;rounded=0;fillStyle=solid;strokeColor=#6c8ebf;fillColor=#dae8fc;" parent="1" vertex="1">
          <mxGeometry x="2840" y="2621" width="230" height="190" as="geometry" />
        </mxCell>
        <mxCell id="kNI0v0t7k7GR0xS2gEk9-155" value="&lt;p style=&quot;margin:0px;margin-top:4px;text-align:center;&quot;&gt;&lt;b&gt;&lt;span style=&quot;font-family: Verdana;&quot;&gt;&amp;lt;&amp;lt;Interface&amp;gt;&amp;gt;&lt;/span&gt;&lt;br style=&quot;font-family: Verdana;&quot;&gt;&lt;span style=&quot;font-family: Verdana;&quot;&gt;ProductList&lt;/span&gt;&lt;br&gt;&lt;/b&gt;&lt;/p&gt;&lt;hr size=&quot;1&quot;&gt;&lt;p style=&quot;margin:0px;margin-left:4px;&quot;&gt;&lt;br&gt;&lt;/p&gt;&lt;hr size=&quot;1&quot;&gt;&lt;p style=&quot;margin:0px;margin-left:4px;&quot;&gt;&amp;nbsp;&lt;/p&gt;&lt;span style=&quot;text-align: center;&quot;&gt;&lt;div style=&quot;text-align: left;&quot;&gt;&lt;span style=&quot;background-color: initial;&quot;&gt;+&amp;nbsp;&lt;font face=&quot;Verdana&quot;&gt;getProductLists()&lt;/font&gt;&lt;/span&gt;&lt;/div&gt;&lt;/span&gt;" style="verticalAlign=top;align=left;overflow=fill;fontSize=12;fontFamily=Helvetica;html=1;rounded=0;fillStyle=solid;strokeColor=#d6b656;fillColor=#fff2cc;" parent="1" vertex="1">
          <mxGeometry x="3357.5" y="2410" width="175" height="130" as="geometry" />
        </mxCell>
        <mxCell id="kNI0v0t7k7GR0xS2gEk9-156" value="&lt;p style=&quot;margin:0px;margin-top:4px;text-align:center;&quot;&gt;&lt;b&gt;&lt;span style=&quot;font-family: Verdana; background-color: initial;&quot;&gt;&amp;lt;&amp;lt;Interface&amp;gt;&amp;gt;&lt;/span&gt;&lt;br&gt;&lt;/b&gt;&lt;/p&gt;&lt;p style=&quot;margin:0px;margin-top:4px;text-align:center;&quot;&gt;&lt;b&gt;&lt;font style=&quot;font-family: Verdana;&quot; face=&quot;Verdana&quot;&gt;AI_Analyze&lt;/font&gt;&lt;span style=&quot;font-family: Verdana;&quot;&gt;&lt;br&gt;&lt;/span&gt;&lt;/b&gt;&lt;/p&gt;&lt;hr size=&quot;1&quot;&gt;&lt;p style=&quot;margin:0px;margin-left:4px;&quot;&gt;&lt;br&gt;&lt;/p&gt;&lt;hr size=&quot;1&quot;&gt;&lt;p style=&quot;margin:0px;margin-left:4px;&quot;&gt;&lt;span style=&quot;background-color: initial;&quot;&gt;+&lt;/span&gt;&lt;font style=&quot;background-color: initial;&quot; face=&quot;Verdana&quot;&gt;getAIResult()&lt;/font&gt;&lt;br&gt;&lt;/p&gt;" style="verticalAlign=top;align=left;overflow=fill;fontSize=12;fontFamily=Helvetica;html=1;rounded=0;fillStyle=solid;strokeColor=#d6b656;fillColor=#fff2cc;" parent="1" vertex="1">
          <mxGeometry x="2867.5" y="2950" width="175" height="130" as="geometry" />
        </mxCell>
        <mxCell id="kNI0v0t7k7GR0xS2gEk9-176" value="&lt;font color=&quot;#ffffff&quot;&gt;t8&lt;/font&gt;" style="text;html=1;strokeColor=none;fillColor=none;align=center;verticalAlign=middle;whiteSpace=wrap;rounded=0;fillStyle=solid;fontFamily=Helvetica;fontSize=16;" parent="1" vertex="1">
          <mxGeometry x="1630" y="3340" width="60" height="30" as="geometry" />
        </mxCell>
        <mxCell id="meV7tn_NvdtixMvR8zqA-2" value="&lt;font style=&quot;font-size: 15px;&quot;&gt;CS682 O2&lt;br&gt;&lt;/font&gt;Chen Han&lt;br&gt;Assignment 4&lt;br&gt;Class Model" style="shape=card;whiteSpace=wrap;html=1;fillColor=#f5f5f5;fontColor=#333333;strokeColor=#666666;" parent="1" vertex="1">
          <mxGeometry x="2110" y="2250" width="110" height="100" as="geometry" />
        </mxCell>
        <mxCell id="5tz5ZhoiL6qwF5Wk2m4U-12" value="&lt;p style=&quot;margin:0px;margin-top:4px;text-align:center;&quot;&gt;&lt;b&gt;&lt;span style=&quot;font-family: Verdana;&quot;&gt;&amp;lt;&amp;lt;Interface&amp;gt;&amp;gt;&lt;/span&gt;&lt;br style=&quot;font-family: Verdana;&quot;&gt;&lt;span style=&quot;font-family: Verdana;&quot;&gt;Camera&lt;/span&gt;&lt;br&gt;&lt;/b&gt;&lt;/p&gt;&lt;hr size=&quot;1&quot;&gt;&lt;p style=&quot;margin:0px;margin-left:4px;&quot;&gt;&lt;br&gt;&lt;/p&gt;&lt;hr size=&quot;1&quot;&gt;&lt;p style=&quot;margin:0px;margin-left:4px;&quot;&gt;&amp;nbsp;&lt;/p&gt;&lt;span style=&quot;text-align: center;&quot;&gt;&lt;div style=&quot;text-align: left;&quot;&gt;&lt;span style=&quot;background-color: initial;&quot;&gt;+ openCamera&lt;font face=&quot;Verdana&quot;&gt;()&lt;/font&gt;&lt;/span&gt;&lt;/div&gt;&lt;/span&gt;" style="verticalAlign=top;align=left;overflow=fill;fontSize=12;fontFamily=Helvetica;html=1;rounded=0;fillStyle=solid;strokeColor=#d6b656;fillColor=#fff2cc;" parent="1" vertex="1">
          <mxGeometry x="2117.5" y="2890" width="175" height="130" as="geometry" />
        </mxCell>
        <mxCell id="5tz5ZhoiL6qwF5Wk2m4U-13" value="&lt;p style=&quot;margin:0px;margin-top:4px;text-align:center;&quot;&gt;&lt;b&gt;Customer&lt;/b&gt;&lt;/p&gt;&lt;hr size=&quot;1&quot;&gt;&lt;p style=&quot;margin:0px;margin-left:4px;&quot;&gt;- CustomerID&lt;br style=&quot;padding: 0px; margin: 0px;&quot;&gt;- Name&lt;br style=&quot;padding: 0px; margin: 0px;&quot;&gt;- Address&lt;br style=&quot;padding: 0px; margin: 0px;&quot;&gt;- PhoneNumber&lt;br style=&quot;padding: 0px; margin: 0px;&quot;&gt;- Preference&lt;br style=&quot;padding: 0px; margin: 0px;&quot;&gt;- Email&lt;/p&gt;&lt;p style=&quot;margin:0px;margin-left:4px;&quot;&gt;- AccountBalance&lt;/p&gt;&lt;p style=&quot;margin:0px;margin-left:4px;&quot;&gt;- Survey&lt;/p&gt;&lt;p style=&quot;margin:0px;margin-left:4px;&quot;&gt;- Order&lt;/p&gt;&lt;p style=&quot;margin:0px;margin-left:4px;&quot;&gt;- SkinType&lt;/p&gt;&lt;p style=&quot;margin:0px;margin-left:4px;&quot;&gt;- FaceAnalyze&lt;/p&gt;&lt;hr size=&quot;1&quot;&gt;&lt;p style=&quot;margin:0px;margin-left:4px;&quot;&gt;&lt;/p&gt;" style="verticalAlign=top;align=left;overflow=fill;fontSize=12;fontFamily=Helvetica;html=1;rounded=0;fillStyle=solid;strokeColor=#6c8ebf;fillColor=#dae8fc;" parent="1" vertex="1">
          <mxGeometry x="2480" y="2620" width="230" height="220" as="geometry" />
        </mxCell>
        <mxCell id="5tz5ZhoiL6qwF5Wk2m4U-14" value="&lt;p style=&quot;margin:0px;margin-top:4px;text-align:center;&quot;&gt;&lt;b&gt;Order&lt;/b&gt;&lt;/p&gt;&lt;hr size=&quot;1&quot;&gt;&lt;p style=&quot;margin:0px;margin-left:4px;&quot;&gt;- OrderID&lt;br style=&quot;padding: 0px; margin: 0px;&quot;&gt;- OrderDate&lt;br style=&quot;padding: 0px; margin: 0px;&quot;&gt;- OrderPrice&lt;br style=&quot;padding: 0px; margin: 0px;&quot;&gt;- ShippingInfo&lt;br style=&quot;padding: 0px; margin: 0px;&quot;&gt;- Description&lt;br&gt;&lt;/p&gt;&lt;hr size=&quot;1&quot;&gt;&lt;p style=&quot;margin:0px;margin-left:4px;&quot;&gt;&lt;/p&gt;&lt;span style=&quot;font-family: Verdana; text-align: center;&quot;&gt;+ makeOrder&lt;/span&gt;&lt;span style=&quot;font-family: Verdana; text-align: center;&quot;&gt;()&lt;/span&gt;" style="verticalAlign=top;align=left;overflow=fill;fontSize=12;fontFamily=Helvetica;html=1;rounded=0;fillStyle=solid;strokeColor=#6c8ebf;fillColor=#dae8fc;" parent="1" vertex="1">
          <mxGeometry x="2480" y="2910" width="230" height="150" as="geometry" />
        </mxCell>
        <mxCell id="5tz5ZhoiL6qwF5Wk2m4U-15" style="edgeStyle=orthogonalEdgeStyle;rounded=0;orthogonalLoop=1;jettySize=auto;html=1;entryX=0.5;entryY=0;entryDx=0;entryDy=0;dashed=1;fontFamily=Helvetica;fontSize=11;startArrow=none;startFill=0;endArrow=classicThin;endFill=1;exitX=0.5;exitY=1;exitDx=0;exitDy=0;" parent="1" source="kNI0v0t7k7GR0xS2gEk9-145" target="5tz5ZhoiL6qwF5Wk2m4U-12" edge="1">
          <mxGeometry relative="1" as="geometry">
            <mxPoint x="1845" y="2820" as="sourcePoint" />
            <mxPoint x="1845" y="2900" as="targetPoint" />
          </mxGeometry>
        </mxCell>
        <mxCell id="5tz5ZhoiL6qwF5Wk2m4U-27" value="&lt;p style=&quot;margin:0px;margin-top:4px;text-align:center;&quot;&gt;&lt;b&gt;Category&lt;/b&gt;&lt;/p&gt;&lt;hr size=&quot;1&quot;&gt;&lt;p style=&quot;margin:0px;margin-left:4px;&quot;&gt;&lt;span style=&quot;background-color: initial;&quot;&gt;- CategoryID&lt;/span&gt;&lt;br&gt;&lt;/p&gt;&lt;p style=&quot;margin:0px;margin-left:4px;&quot;&gt;- Description&lt;/p&gt;&lt;hr size=&quot;1&quot;&gt;&lt;p style=&quot;margin:0px;margin-left:4px;&quot;&gt;&lt;span style=&quot;font-family: Verdana; text-align: center;&quot;&gt;+ getCategory()&lt;/span&gt;&lt;br&gt;&lt;/p&gt;" style="verticalAlign=top;align=left;overflow=fill;fontSize=12;fontFamily=Helvetica;html=1;rounded=0;fillStyle=solid;strokeColor=#6c8ebf;fillColor=#dae8fc;" parent="1" vertex="1">
          <mxGeometry x="3670" y="2624" width="190" height="120" as="geometry" />
        </mxCell>
        <mxCell id="5tz5ZhoiL6qwF5Wk2m4U-29" value="&lt;p style=&quot;margin:0px;margin-top:4px;text-align:center;&quot;&gt;&lt;b&gt;SkinType&lt;/b&gt;&lt;/p&gt;&lt;hr size=&quot;1&quot;&gt;&lt;p style=&quot;margin:0px;margin-left:4px;&quot;&gt;&lt;span style=&quot;background-color: initial;&quot;&gt;- SkinTypeID&lt;/span&gt;&lt;br&gt;&lt;/p&gt;&lt;p style=&quot;margin:0px;margin-left:4px;&quot;&gt;- SkinTypeDescription&lt;/p&gt;&lt;hr size=&quot;1&quot;&gt;&lt;p style=&quot;margin:0px;margin-left:4px;&quot;&gt;&lt;span style=&quot;font-family: Verdana; text-align: center;&quot;&gt;+ getSkinType()&lt;/span&gt;&lt;br&gt;&lt;/p&gt;" style="verticalAlign=top;align=left;overflow=fill;fontSize=12;fontFamily=Helvetica;html=1;rounded=0;fillStyle=solid;strokeColor=#6c8ebf;fillColor=#dae8fc;" parent="1" vertex="1">
          <mxGeometry x="2280" y="3070" width="190" height="120" as="geometry" />
        </mxCell>
        <mxCell id="5tz5ZhoiL6qwF5Wk2m4U-30" value="&lt;p style=&quot;margin:0px;margin-top:4px;text-align:center;&quot;&gt;&lt;b&gt;Ingredient&lt;/b&gt;&lt;/p&gt;&lt;hr size=&quot;1&quot;&gt;&lt;p style=&quot;margin:0px;margin-left:4px;&quot;&gt;&lt;span style=&quot;background-color: initial;&quot;&gt;- IngredientID&lt;/span&gt;&lt;br&gt;&lt;/p&gt;&lt;p style=&quot;margin:0px;margin-left:4px;&quot;&gt;- IngredientDescription&lt;/p&gt;&lt;hr size=&quot;1&quot;&gt;&lt;p style=&quot;margin:0px;margin-left:4px;&quot;&gt;&lt;span style=&quot;font-family: Verdana; text-align: center;&quot;&gt;+ getIngredientInfo()&lt;/span&gt;&lt;br&gt;&lt;/p&gt;" style="verticalAlign=top;align=left;overflow=fill;fontSize=12;fontFamily=Helvetica;html=1;rounded=0;fillStyle=solid;strokeColor=#6c8ebf;fillColor=#dae8fc;" parent="1" vertex="1">
          <mxGeometry x="3640" y="2975" width="190" height="120" as="geometry" />
        </mxCell>
        <mxCell id="5tz5ZhoiL6qwF5Wk2m4U-31" value="&lt;p style=&quot;margin:0px;margin-top:4px;text-align:center;&quot;&gt;&lt;b&gt;Allergy&lt;/b&gt;&lt;/p&gt;&lt;hr size=&quot;1&quot;&gt;&lt;p style=&quot;margin:0px;margin-left:4px;&quot;&gt;&lt;span style=&quot;background-color: initial;&quot;&gt;- AllergyID&lt;/span&gt;&lt;br&gt;&lt;/p&gt;&lt;p style=&quot;margin:0px;margin-left:4px;&quot;&gt;- AllergyDescription&lt;/p&gt;&lt;hr size=&quot;1&quot;&gt;&lt;p style=&quot;margin:0px;margin-left:4px;&quot;&gt;&lt;span style=&quot;font-family: Verdana; text-align: center;&quot;&gt;+ getAllergyInfo()&lt;/span&gt;&lt;br&gt;&lt;/p&gt;" style="verticalAlign=top;align=left;overflow=fill;fontSize=12;fontFamily=Helvetica;html=1;rounded=0;fillStyle=solid;strokeColor=#6c8ebf;fillColor=#dae8fc;" parent="1" vertex="1">
          <mxGeometry x="3215" y="3190" width="190" height="120" as="geometry" />
        </mxCell>
        <mxCell id="5tz5ZhoiL6qwF5Wk2m4U-32" value="&lt;p style=&quot;margin:0px;margin-top:4px;text-align:center;&quot;&gt;&lt;b&gt;Notification&lt;/b&gt;&lt;/p&gt;&lt;hr size=&quot;1&quot;&gt;&lt;p style=&quot;margin:0px;margin-left:4px;&quot;&gt;&lt;span style=&quot;background-color: initial;&quot;&gt;- NotificationID&lt;/span&gt;&lt;/p&gt;&amp;nbsp;- Notification&lt;span style=&quot;background-color: initial;&quot;&gt;Description&lt;br&gt;&lt;/span&gt;-&amp;nbsp; AllergyID&lt;br&gt;- ExpirationDate&lt;br&gt;- RecommendUsage&lt;br&gt;- StorageNotice.&lt;br&gt;&lt;hr size=&quot;1&quot;&gt;&lt;p style=&quot;margin:0px;margin-left:4px;&quot;&gt;&lt;span style=&quot;font-family: Verdana; text-align: center;&quot;&gt;+ getNotificationInfo()&lt;/span&gt;&lt;br&gt;&lt;/p&gt;" style="verticalAlign=top;align=left;overflow=fill;fontSize=12;fontFamily=Helvetica;html=1;rounded=0;fillStyle=solid;strokeColor=#6c8ebf;fillColor=#dae8fc;" parent="1" vertex="1">
          <mxGeometry x="3350" y="2920" width="190" height="160" as="geometry" />
        </mxCell>
        <mxCell id="5tz5ZhoiL6qwF5Wk2m4U-41" value="" style="endArrow=none;html=1;endSize=12;startArrow=diamondThin;startSize=14;startFill=1;edgeStyle=orthogonalEdgeStyle;rounded=1;fontSize=18;exitX=-0.01;exitY=0.436;exitDx=0;exitDy=0;entryX=1;entryY=0.5;entryDx=0;entryDy=0;endFill=0;exitPerimeter=0;" parent="1" source="5tz5ZhoiL6qwF5Wk2m4U-13" target="kNI0v0t7k7GR0xS2gEk9-145" edge="1">
          <mxGeometry relative="1" as="geometry">
            <mxPoint x="1970" y="3000" as="sourcePoint" />
            <mxPoint x="2130" y="3000" as="targetPoint" />
          </mxGeometry>
        </mxCell>
        <mxCell id="5tz5ZhoiL6qwF5Wk2m4U-42" value="1" style="edgeLabel;resizable=0;html=1;align=left;verticalAlign=top;strokeColor=default;fontSize=18;fillColor=default;" parent="5tz5ZhoiL6qwF5Wk2m4U-41" connectable="0" vertex="1">
          <mxGeometry x="-1" relative="1" as="geometry">
            <mxPoint x="-20" y="-35" as="offset" />
          </mxGeometry>
        </mxCell>
        <mxCell id="5tz5ZhoiL6qwF5Wk2m4U-43" value="0..*" style="edgeLabel;resizable=0;html=1;align=right;verticalAlign=top;strokeColor=default;fontSize=18;fillColor=default;" parent="5tz5ZhoiL6qwF5Wk2m4U-41" connectable="0" vertex="1">
          <mxGeometry x="1" relative="1" as="geometry">
            <mxPoint x="41" y="-35" as="offset" />
          </mxGeometry>
        </mxCell>
        <mxCell id="5tz5ZhoiL6qwF5Wk2m4U-45" value="" style="endArrow=none;html=1;endSize=12;startArrow=diamondThin;startSize=14;startFill=1;edgeStyle=orthogonalEdgeStyle;rounded=1;fontSize=18;entryX=0;entryY=0.5;entryDx=0;entryDy=0;endFill=0;" parent="1" target="kNI0v0t7k7GR0xS2gEk9-154" edge="1">
          <mxGeometry relative="1" as="geometry">
            <mxPoint x="2710" y="2716" as="sourcePoint" />
            <mxPoint x="2330" y="2725" as="targetPoint" />
          </mxGeometry>
        </mxCell>
        <mxCell id="5tz5ZhoiL6qwF5Wk2m4U-46" value="1" style="edgeLabel;resizable=0;html=1;align=left;verticalAlign=top;strokeColor=default;fontSize=18;fillColor=default;" parent="5tz5ZhoiL6qwF5Wk2m4U-45" connectable="0" vertex="1">
          <mxGeometry x="-1" relative="1" as="geometry">
            <mxPoint x="10" y="-35" as="offset" />
          </mxGeometry>
        </mxCell>
        <mxCell id="5tz5ZhoiL6qwF5Wk2m4U-47" value="0..*" style="edgeLabel;resizable=0;html=1;align=right;verticalAlign=top;strokeColor=default;fontSize=18;fillColor=default;" parent="5tz5ZhoiL6qwF5Wk2m4U-45" connectable="0" vertex="1">
          <mxGeometry x="1" relative="1" as="geometry">
            <mxPoint x="-11" y="-35" as="offset" />
          </mxGeometry>
        </mxCell>
        <mxCell id="5tz5ZhoiL6qwF5Wk2m4U-48" value="" style="endArrow=none;html=1;endSize=12;startArrow=diamond;startSize=14;startFill=0;edgeStyle=orthogonalEdgeStyle;rounded=1;fontSize=18;exitX=0;exitY=0.75;exitDx=0;exitDy=0;entryX=0.5;entryY=0;entryDx=0;entryDy=0;endFill=0;" parent="1" source="5tz5ZhoiL6qwF5Wk2m4U-13" target="5tz5ZhoiL6qwF5Wk2m4U-29" edge="1">
          <mxGeometry relative="1" as="geometry">
            <mxPoint x="2490" y="2700" as="sourcePoint" />
            <mxPoint x="2330" y="2725" as="targetPoint" />
          </mxGeometry>
        </mxCell>
        <mxCell id="5tz5ZhoiL6qwF5Wk2m4U-49" value="1..*" style="edgeLabel;resizable=0;html=1;align=left;verticalAlign=top;strokeColor=default;fontSize=18;fillColor=default;" parent="5tz5ZhoiL6qwF5Wk2m4U-48" connectable="0" vertex="1">
          <mxGeometry x="-1" relative="1" as="geometry">
            <mxPoint x="-40" y="-35" as="offset" />
          </mxGeometry>
        </mxCell>
        <mxCell id="5tz5ZhoiL6qwF5Wk2m4U-50" value="1" style="edgeLabel;resizable=0;html=1;align=right;verticalAlign=top;strokeColor=default;fontSize=18;fillColor=default;" parent="5tz5ZhoiL6qwF5Wk2m4U-48" connectable="0" vertex="1">
          <mxGeometry x="1" relative="1" as="geometry">
            <mxPoint x="-5" y="-39" as="offset" />
          </mxGeometry>
        </mxCell>
        <mxCell id="5tz5ZhoiL6qwF5Wk2m4U-51" value="" style="endArrow=none;html=1;endSize=12;startArrow=diamond;startSize=14;startFill=0;edgeStyle=orthogonalEdgeStyle;rounded=1;fontSize=18;exitX=1;exitY=0.5;exitDx=0;exitDy=0;entryX=0.004;entryY=0.561;entryDx=0;entryDy=0;endFill=0;entryPerimeter=0;" parent="1" source="kNI0v0t7k7GR0xS2gEk9-154" target="kNI0v0t7k7GR0xS2gEk9-144" edge="1">
          <mxGeometry relative="1" as="geometry">
            <mxPoint x="2490" y="2755" as="sourcePoint" />
            <mxPoint x="2405" y="3080" as="targetPoint" />
          </mxGeometry>
        </mxCell>
        <mxCell id="5tz5ZhoiL6qwF5Wk2m4U-52" value="0..*" style="edgeLabel;resizable=0;html=1;align=left;verticalAlign=top;strokeColor=default;fontSize=18;fillColor=default;" parent="5tz5ZhoiL6qwF5Wk2m4U-51" connectable="0" vertex="1">
          <mxGeometry x="-1" relative="1" as="geometry">
            <mxPoint x="9" y="-35" as="offset" />
          </mxGeometry>
        </mxCell>
        <mxCell id="5tz5ZhoiL6qwF5Wk2m4U-53" value="1..*" style="edgeLabel;resizable=0;html=1;align=right;verticalAlign=top;strokeColor=default;fontSize=18;fillColor=default;" parent="5tz5ZhoiL6qwF5Wk2m4U-51" connectable="0" vertex="1">
          <mxGeometry x="1" relative="1" as="geometry">
            <mxPoint x="-5" y="-39" as="offset" />
          </mxGeometry>
        </mxCell>
        <mxCell id="5tz5ZhoiL6qwF5Wk2m4U-54" value="" style="endArrow=none;html=1;endSize=12;startArrow=diamond;startSize=14;startFill=0;edgeStyle=orthogonalEdgeStyle;rounded=1;fontSize=18;exitX=0.998;exitY=0.329;exitDx=0;exitDy=0;entryX=0;entryY=0.5;entryDx=0;entryDy=0;endFill=0;exitPerimeter=0;" parent="1" source="kNI0v0t7k7GR0xS2gEk9-144" target="5tz5ZhoiL6qwF5Wk2m4U-27" edge="1">
          <mxGeometry relative="1" as="geometry">
            <mxPoint x="3150" y="2725" as="sourcePoint" />
            <mxPoint x="3285" y="2715" as="targetPoint" />
          </mxGeometry>
        </mxCell>
        <mxCell id="5tz5ZhoiL6qwF5Wk2m4U-55" value="0..*" style="edgeLabel;resizable=0;html=1;align=left;verticalAlign=top;strokeColor=default;fontSize=18;fillColor=default;" parent="5tz5ZhoiL6qwF5Wk2m4U-54" connectable="0" vertex="1">
          <mxGeometry x="-1" relative="1" as="geometry">
            <mxPoint x="9" y="-35" as="offset" />
          </mxGeometry>
        </mxCell>
        <mxCell id="5tz5ZhoiL6qwF5Wk2m4U-56" value="1" style="edgeLabel;resizable=0;html=1;align=right;verticalAlign=top;strokeColor=default;fontSize=18;fillColor=default;" parent="5tz5ZhoiL6qwF5Wk2m4U-54" connectable="0" vertex="1">
          <mxGeometry x="1" relative="1" as="geometry">
            <mxPoint x="-5" y="-39" as="offset" />
          </mxGeometry>
        </mxCell>
        <mxCell id="5tz5ZhoiL6qwF5Wk2m4U-60" value="" style="endArrow=none;html=1;endSize=12;startArrow=diamondThin;startSize=14;startFill=1;edgeStyle=orthogonalEdgeStyle;rounded=1;fontSize=18;exitX=0.5;exitY=1;exitDx=0;exitDy=0;entryX=0.5;entryY=0;entryDx=0;entryDy=0;endFill=0;" parent="1" source="kNI0v0t7k7GR0xS2gEk9-144" target="5tz5ZhoiL6qwF5Wk2m4U-32" edge="1">
          <mxGeometry relative="1" as="geometry">
            <mxPoint x="2720" y="2700" as="sourcePoint" />
            <mxPoint x="2920" y="2725" as="targetPoint" />
          </mxGeometry>
        </mxCell>
        <mxCell id="5tz5ZhoiL6qwF5Wk2m4U-61" value="1" style="edgeLabel;resizable=0;html=1;align=left;verticalAlign=top;strokeColor=default;fontSize=18;fillColor=default;" parent="5tz5ZhoiL6qwF5Wk2m4U-60" connectable="0" vertex="1">
          <mxGeometry x="-1" relative="1" as="geometry">
            <mxPoint x="-25" y="-35" as="offset" />
          </mxGeometry>
        </mxCell>
        <mxCell id="5tz5ZhoiL6qwF5Wk2m4U-62" value="0..*" style="edgeLabel;resizable=0;html=1;align=right;verticalAlign=top;strokeColor=default;fontSize=18;fillColor=default;" parent="5tz5ZhoiL6qwF5Wk2m4U-60" connectable="0" vertex="1">
          <mxGeometry x="1" relative="1" as="geometry">
            <mxPoint x="-11" y="-35" as="offset" />
          </mxGeometry>
        </mxCell>
        <mxCell id="5tz5ZhoiL6qwF5Wk2m4U-63" value="" style="endArrow=none;html=1;endSize=12;startArrow=diamondThin;startSize=14;startFill=1;edgeStyle=orthogonalEdgeStyle;rounded=1;fontSize=18;exitX=1;exitY=0.75;exitDx=0;exitDy=0;endFill=0;" parent="1" source="kNI0v0t7k7GR0xS2gEk9-144" target="5tz5ZhoiL6qwF5Wk2m4U-30" edge="1">
          <mxGeometry relative="1" as="geometry">
            <mxPoint x="3285" y="2762.5" as="sourcePoint" />
            <mxPoint x="3255" y="3150" as="targetPoint" />
          </mxGeometry>
        </mxCell>
        <mxCell id="5tz5ZhoiL6qwF5Wk2m4U-64" value="1..*" style="edgeLabel;resizable=0;html=1;align=left;verticalAlign=top;strokeColor=default;fontSize=18;fillColor=default;" parent="5tz5ZhoiL6qwF5Wk2m4U-63" connectable="0" vertex="1">
          <mxGeometry x="-1" relative="1" as="geometry">
            <mxPoint x="13" as="offset" />
          </mxGeometry>
        </mxCell>
        <mxCell id="5tz5ZhoiL6qwF5Wk2m4U-65" value="1..*" style="edgeLabel;resizable=0;html=1;align=right;verticalAlign=top;strokeColor=default;fontSize=18;fillColor=default;" parent="5tz5ZhoiL6qwF5Wk2m4U-63" connectable="0" vertex="1">
          <mxGeometry x="1" relative="1" as="geometry">
            <mxPoint x="-11" y="-35" as="offset" />
          </mxGeometry>
        </mxCell>
        <mxCell id="5tz5ZhoiL6qwF5Wk2m4U-66" value="" style="endArrow=none;html=1;endSize=12;startArrow=diamondThin;startSize=14;startFill=1;edgeStyle=orthogonalEdgeStyle;rounded=1;dashed=1;fontSize=18;exitX=0.5;exitY=1;exitDx=0;exitDy=0;entryX=0.5;entryY=0;entryDx=0;entryDy=0;endFill=0;" parent="1" source="5tz5ZhoiL6qwF5Wk2m4U-13" target="5tz5ZhoiL6qwF5Wk2m4U-14" edge="1">
          <mxGeometry relative="1" as="geometry">
            <mxPoint x="2720" y="2740" as="sourcePoint" />
            <mxPoint x="2920" y="2725" as="targetPoint" />
          </mxGeometry>
        </mxCell>
        <mxCell id="5tz5ZhoiL6qwF5Wk2m4U-67" value="1" style="edgeLabel;resizable=0;html=1;align=left;verticalAlign=top;strokeColor=default;fontSize=18;fillColor=default;" parent="5tz5ZhoiL6qwF5Wk2m4U-66" connectable="0" vertex="1">
          <mxGeometry x="-1" relative="1" as="geometry">
            <mxPoint x="-25" as="offset" />
          </mxGeometry>
        </mxCell>
        <mxCell id="5tz5ZhoiL6qwF5Wk2m4U-68" value="0..*" style="edgeLabel;resizable=0;html=1;align=right;verticalAlign=top;strokeColor=default;fontSize=18;fillColor=default;" parent="5tz5ZhoiL6qwF5Wk2m4U-66" connectable="0" vertex="1">
          <mxGeometry x="1" relative="1" as="geometry">
            <mxPoint x="-11" y="-35" as="offset" />
          </mxGeometry>
        </mxCell>
        <mxCell id="5tz5ZhoiL6qwF5Wk2m4U-69" value="000" style="text;align=center;fontStyle=1;verticalAlign=middle;spacingLeft=3;spacingRight=3;strokeColor=none;rotatable=0;points=[[0,0.5],[1,0.5]];portConstraint=eastwest;fontSize=18;fillColor=default;fontColor=#FFFFFF;" parent="1" vertex="1">
          <mxGeometry x="2240" y="3600" width="80" height="26" as="geometry" />
        </mxCell>
        <mxCell id="5tz5ZhoiL6qwF5Wk2m4U-72" value="" style="endArrow=block;endFill=0;endSize=12;html=1;fontSize=18;fontColor=#FFFFFF;exitX=0.5;exitY=0;exitDx=0;exitDy=0;rounded=0;entryX=0.5;entryY=1;entryDx=0;entryDy=0;" parent="1" source="5tz5ZhoiL6qwF5Wk2m4U-31" edge="1" target="5tz5ZhoiL6qwF5Wk2m4U-32">
          <mxGeometry width="160" relative="1" as="geometry">
            <mxPoint x="3600" y="2950" as="sourcePoint" />
            <mxPoint x="3170" y="3060" as="targetPoint" />
            <Array as="points">
              <mxPoint x="3310" y="3120" />
              <mxPoint x="3445" y="3120" />
            </Array>
          </mxGeometry>
        </mxCell>
        <mxCell id="5tz5ZhoiL6qwF5Wk2m4U-74" value="&lt;p style=&quot;margin:0px;margin-top:4px;text-align:center;&quot;&gt;&lt;b&gt;StorageNotice&lt;/b&gt;&lt;/p&gt;&lt;hr size=&quot;1&quot;&gt;&lt;p style=&quot;margin:0px;margin-left:4px;&quot;&gt;&lt;span style=&quot;background-color: initial;&quot;&gt;- StorageNoticeID&lt;/span&gt;&lt;/p&gt;&lt;p style=&quot;margin:0px;margin-left:4px;&quot;&gt;&lt;span style=&quot;background-color: initial;&quot;&gt;- StorageDescription&lt;/span&gt;&lt;/p&gt;&lt;hr size=&quot;1&quot;&gt;&lt;p style=&quot;margin:0px;margin-left:4px;&quot;&gt;&lt;span style=&quot;font-family: Verdana; text-align: center;&quot;&gt;+ getStorageInfo()&lt;/span&gt;&lt;br&gt;&lt;/p&gt;" style="verticalAlign=top;align=left;overflow=fill;fontSize=12;fontFamily=Helvetica;html=1;rounded=0;fillStyle=solid;strokeColor=#6c8ebf;fillColor=#dae8fc;" parent="1" vertex="1">
          <mxGeometry x="3535.5" y="3190" width="190" height="120" as="geometry" />
        </mxCell>
        <mxCell id="5tz5ZhoiL6qwF5Wk2m4U-75" value="" style="endArrow=block;endFill=0;endSize=12;html=1;fontSize=18;fontColor=#FFFFFF;exitX=0.5;exitY=0;exitDx=0;exitDy=0;rounded=0;entryX=0.5;entryY=1;entryDx=0;entryDy=0;" parent="1" source="5tz5ZhoiL6qwF5Wk2m4U-74" edge="1" target="5tz5ZhoiL6qwF5Wk2m4U-32">
          <mxGeometry width="160" relative="1" as="geometry">
            <mxPoint x="3045" y="3170" as="sourcePoint" />
            <mxPoint x="3170" y="3060" as="targetPoint" />
            <Array as="points">
              <mxPoint x="3630" y="3120" />
              <mxPoint x="3445" y="3120" />
            </Array>
          </mxGeometry>
        </mxCell>
        <mxCell id="ZvMLKBT_PyKlyKGR0UZF-5" value="" style="shape=mxgraph.mockup.containers.marginRect;rectMarginTop=10;strokeColor=#666666;strokeWidth=1;dashed=0;rounded=1;arcSize=5;recursiveResize=0;labelBackgroundColor=none;sketch=0;fillStyle=dashed;fontColor=#A680B8;fillColor=#33FF33;gradientColor=none;" vertex="1" parent="1">
          <mxGeometry x="1940" y="2540" width="870" height="670" as="geometry" />
        </mxCell>
        <mxCell id="ZvMLKBT_PyKlyKGR0UZF-6" value="CustomerPackage" style="shape=rect;strokeColor=#82b366;fillColor=#d5e8d4;strokeWidth=1;dashed=0;rounded=1;arcSize=20;fontSize=17;spacing=2;spacingTop=-2;align=left;autosize=1;spacingLeft=4;resizeWidth=0;resizeHeight=0;perimeter=none;labelBackgroundColor=none;sketch=0;fillStyle=auto;labelBorderColor=none;" vertex="1" parent="ZvMLKBT_PyKlyKGR0UZF-5">
          <mxGeometry y="4" width="170" height="30" as="geometry" />
        </mxCell>
        <mxCell id="ZvMLKBT_PyKlyKGR0UZF-8" value="" style="shape=mxgraph.mockup.containers.marginRect;rectMarginTop=10;strokeColor=#666666;strokeWidth=1;dashed=0;rounded=1;arcSize=5;recursiveResize=0;labelBackgroundColor=none;sketch=0;fillStyle=dashed;fontColor=#A680B8;fillColor=#CC0066;gradientColor=none;" vertex="1" parent="1">
          <mxGeometry x="3110" y="2580" width="850" height="810" as="geometry" />
        </mxCell>
        <mxCell id="ZvMLKBT_PyKlyKGR0UZF-9" value="ProductPackage" style="shape=rect;strokeColor=#b85450;fillColor=#f8cecc;strokeWidth=1;dashed=0;rounded=1;arcSize=20;fontSize=17;spacing=2;spacingTop=-2;align=left;autosize=1;spacingLeft=4;resizeWidth=0;resizeHeight=0;perimeter=none;labelBackgroundColor=none;sketch=0;fillStyle=auto;labelBorderColor=none;" vertex="1" parent="ZvMLKBT_PyKlyKGR0UZF-8">
          <mxGeometry y="4" width="150" height="30" as="geometry" />
        </mxCell>
        <mxCell id="ZvMLKBT_PyKlyKGR0UZF-25" style="edgeStyle=orthogonalEdgeStyle;curved=1;orthogonalLoop=1;jettySize=auto;html=1;entryX=0.753;entryY=0.947;entryDx=0;entryDy=0;fontSize=22;fontColor=#000000;exitX=0.5;exitY=0;exitDx=0;exitDy=0;entryPerimeter=0;" edge="1" parent="1" source="ZvMLKBT_PyKlyKGR0UZF-10" target="ZvMLKBT_PyKlyKGR0UZF-20">
          <mxGeometry relative="1" as="geometry" />
        </mxCell>
        <mxCell id="ZvMLKBT_PyKlyKGR0UZF-26" value="Matched Products(1c)" style="edgeLabel;html=1;align=center;verticalAlign=middle;resizable=0;points=[];fontSize=22;fontColor=#000000;" vertex="1" connectable="0" parent="ZvMLKBT_PyKlyKGR0UZF-25">
          <mxGeometry x="0.1" y="68" relative="1" as="geometry">
            <mxPoint x="3" y="-91" as="offset" />
          </mxGeometry>
        </mxCell>
        <mxCell id="ZvMLKBT_PyKlyKGR0UZF-39" style="edgeStyle=orthogonalEdgeStyle;curved=1;orthogonalLoop=1;jettySize=auto;html=1;entryX=0.5;entryY=1;entryDx=0;entryDy=0;fontSize=22;fontColor=#000000;exitX=0.921;exitY=-0.022;exitDx=0;exitDy=0;exitPerimeter=0;" edge="1" parent="1" source="ZvMLKBT_PyKlyKGR0UZF-10" target="ZvMLKBT_PyKlyKGR0UZF-36">
          <mxGeometry relative="1" as="geometry" />
        </mxCell>
        <mxCell id="ZvMLKBT_PyKlyKGR0UZF-40" value="Matched Products (1g)" style="edgeLabel;html=1;align=center;verticalAlign=middle;resizable=0;points=[];fontSize=22;fontColor=#000000;" vertex="1" connectable="0" parent="ZvMLKBT_PyKlyKGR0UZF-39">
          <mxGeometry x="0.1337" y="10" relative="1" as="geometry">
            <mxPoint x="25" y="-15" as="offset" />
          </mxGeometry>
        </mxCell>
        <mxCell id="ZvMLKBT_PyKlyKGR0UZF-66" style="edgeStyle=orthogonalEdgeStyle;curved=1;orthogonalLoop=1;jettySize=auto;html=1;fontSize=22;fontColor=#000000;exitX=0.852;exitY=1.044;exitDx=0;exitDy=0;exitPerimeter=0;" edge="1" parent="1" source="ZvMLKBT_PyKlyKGR0UZF-10" target="ZvMLKBT_PyKlyKGR0UZF-65">
          <mxGeometry relative="1" as="geometry">
            <Array as="points">
              <mxPoint x="3480" y="4274" />
            </Array>
          </mxGeometry>
        </mxCell>
        <mxCell id="ZvMLKBT_PyKlyKGR0UZF-67" value="Notification (3c)" style="edgeLabel;html=1;align=center;verticalAlign=middle;resizable=0;points=[];fontSize=22;fontColor=#000000;" vertex="1" connectable="0" parent="ZvMLKBT_PyKlyKGR0UZF-66">
          <mxGeometry x="0.316" y="-6" relative="1" as="geometry">
            <mxPoint as="offset" />
          </mxGeometry>
        </mxCell>
        <mxCell id="ZvMLKBT_PyKlyKGR0UZF-10" value="&lt;font style=&quot;font-size: 20px;&quot;&gt;Product List&lt;/font&gt;" style="html=1;dashed=0;whitespace=wrap;shape=partialRectangle;right=0;left=0;labelBackgroundColor=none;labelBorderColor=none;sketch=0;fillStyle=dashed;fontColor=#000000;fillColor=#CC0066;gradientColor=none;" vertex="1" parent="1">
          <mxGeometry x="3020" y="4180" width="420" height="90" as="geometry" />
        </mxCell>
        <mxCell id="ZvMLKBT_PyKlyKGR0UZF-15" style="edgeStyle=orthogonalEdgeStyle;rounded=0;orthogonalLoop=1;jettySize=auto;html=1;fontSize=20;fontColor=#000000;" edge="1" parent="1" source="ZvMLKBT_PyKlyKGR0UZF-11" target="ZvMLKBT_PyKlyKGR0UZF-16">
          <mxGeometry relative="1" as="geometry">
            <mxPoint x="2890" y="3940" as="targetPoint" />
          </mxGeometry>
        </mxCell>
        <mxCell id="ZvMLKBT_PyKlyKGR0UZF-19" value="Survey(1a)" style="edgeLabel;html=1;align=center;verticalAlign=middle;resizable=0;points=[];fontSize=22;fontColor=#000000;" vertex="1" connectable="0" parent="ZvMLKBT_PyKlyKGR0UZF-15">
          <mxGeometry x="-0.2852" y="-1" relative="1" as="geometry">
            <mxPoint x="-1" as="offset" />
          </mxGeometry>
        </mxCell>
        <mxCell id="ZvMLKBT_PyKlyKGR0UZF-32" style="edgeStyle=orthogonalEdgeStyle;curved=1;orthogonalLoop=1;jettySize=auto;html=1;exitX=0.5;exitY=0;exitDx=0;exitDy=0;fontSize=22;fontColor=#000000;entryX=0;entryY=0.5;entryDx=0;entryDy=0;" edge="1" parent="1" source="ZvMLKBT_PyKlyKGR0UZF-11" target="ZvMLKBT_PyKlyKGR0UZF-34">
          <mxGeometry relative="1" as="geometry">
            <mxPoint x="3010" y="3630" as="targetPoint" />
          </mxGeometry>
        </mxCell>
        <mxCell id="ZvMLKBT_PyKlyKGR0UZF-35" value="Captured Photo (1e)" style="edgeLabel;html=1;align=center;verticalAlign=middle;resizable=0;points=[];fontSize=22;fontColor=#000000;" vertex="1" connectable="0" parent="ZvMLKBT_PyKlyKGR0UZF-32">
          <mxGeometry x="0.056" y="-20" relative="1" as="geometry">
            <mxPoint x="49" as="offset" />
          </mxGeometry>
        </mxCell>
        <mxCell id="ZvMLKBT_PyKlyKGR0UZF-44" style="edgeStyle=orthogonalEdgeStyle;curved=1;orthogonalLoop=1;jettySize=auto;html=1;entryX=0;entryY=0.5;entryDx=0;entryDy=0;fontSize=22;fontColor=#000000;exitX=0.75;exitY=1;exitDx=0;exitDy=0;" edge="1" parent="1" source="ZvMLKBT_PyKlyKGR0UZF-11" target="ZvMLKBT_PyKlyKGR0UZF-43">
          <mxGeometry relative="1" as="geometry" />
        </mxCell>
        <mxCell id="ZvMLKBT_PyKlyKGR0UZF-45" value="Product (2a)" style="edgeLabel;html=1;align=center;verticalAlign=middle;resizable=0;points=[];fontSize=22;fontColor=#000000;" vertex="1" connectable="0" parent="ZvMLKBT_PyKlyKGR0UZF-44">
          <mxGeometry x="-0.3067" y="4" relative="1" as="geometry">
            <mxPoint as="offset" />
          </mxGeometry>
        </mxCell>
        <mxCell id="ZvMLKBT_PyKlyKGR0UZF-11" value="Customer" style="html=1;dashed=0;whitespace=wrap;labelBackgroundColor=none;labelBorderColor=none;sketch=0;fillStyle=auto;fontSize=20;fillColor=#dae8fc;strokeColor=#6c8ebf;" vertex="1" parent="1">
          <mxGeometry x="2400" y="3890" width="150" height="80" as="geometry" />
        </mxCell>
        <mxCell id="ZvMLKBT_PyKlyKGR0UZF-23" style="edgeStyle=orthogonalEdgeStyle;orthogonalLoop=1;jettySize=auto;html=1;exitX=0.5;exitY=1;exitDx=0;exitDy=0;entryX=0.25;entryY=0;entryDx=0;entryDy=0;fontSize=22;fontColor=#000000;curved=1;" edge="1" parent="1" source="ZvMLKBT_PyKlyKGR0UZF-16" target="ZvMLKBT_PyKlyKGR0UZF-10">
          <mxGeometry relative="1" as="geometry" />
        </mxCell>
        <mxCell id="ZvMLKBT_PyKlyKGR0UZF-24" value="Survey(1b)" style="edgeLabel;html=1;align=center;verticalAlign=middle;resizable=0;points=[];fontSize=22;fontColor=#000000;" vertex="1" connectable="0" parent="ZvMLKBT_PyKlyKGR0UZF-23">
          <mxGeometry x="-0.2756" y="-52" relative="1" as="geometry">
            <mxPoint x="45" y="-57" as="offset" />
          </mxGeometry>
        </mxCell>
        <mxCell id="ZvMLKBT_PyKlyKGR0UZF-16" value="Complete Survey" style="shape=ellipse;html=1;dashed=0;whitespace=wrap;aspect=fixed;perimeter=ellipsePerimeter;labelBackgroundColor=none;labelBorderColor=none;sketch=0;fillStyle=auto;fontSize=20;fontColor=#000000;fillColor=#FFFFFF;gradientColor=none;" vertex="1" parent="1">
          <mxGeometry x="2740" y="3850" width="160" height="160" as="geometry" />
        </mxCell>
        <mxCell id="ZvMLKBT_PyKlyKGR0UZF-18" value="&lt;font style=&quot;font-size: 22px;&quot;&gt;&lt;b&gt;Logistic Data Flow&lt;br&gt;&lt;/b&gt;Finding a suitable product in the BestPurchase Application.&lt;br&gt;&lt;br&gt;Scenario: A female customer completes a survey on the application, it then captures a picture of her. The AI system analyzes it and perform searching in the Product List. The system displays suggested product and the notification to the customer.&amp;nbsp;&lt;/font&gt;" style="shape=note2;boundedLbl=1;whiteSpace=wrap;html=1;size=25;verticalAlign=top;align=left;labelBackgroundColor=none;labelBorderColor=none;sketch=0;fillStyle=auto;fontSize=20;fillColor=#fff2cc;strokeColor=#d6b656;" vertex="1" parent="1">
          <mxGeometry x="1870" y="3555" width="380" height="355" as="geometry" />
        </mxCell>
        <mxCell id="ZvMLKBT_PyKlyKGR0UZF-29" style="edgeStyle=orthogonalEdgeStyle;curved=1;orthogonalLoop=1;jettySize=auto;html=1;exitX=0.5;exitY=0;exitDx=0;exitDy=0;entryX=0.75;entryY=0;entryDx=0;entryDy=0;fontSize=22;fontColor=#000000;" edge="1" parent="1" source="ZvMLKBT_PyKlyKGR0UZF-20" target="ZvMLKBT_PyKlyKGR0UZF-11">
          <mxGeometry relative="1" as="geometry">
            <Array as="points">
              <mxPoint x="3125" y="3790" />
              <mxPoint x="2513" y="3790" />
            </Array>
          </mxGeometry>
        </mxCell>
        <mxCell id="ZvMLKBT_PyKlyKGR0UZF-30" value="Open Camera (1d)" style="edgeLabel;html=1;align=center;verticalAlign=middle;resizable=0;points=[];fontSize=22;fontColor=#000000;" vertex="1" connectable="0" parent="ZvMLKBT_PyKlyKGR0UZF-29">
          <mxGeometry x="0.0625" y="-6" relative="1" as="geometry">
            <mxPoint x="-1" as="offset" />
          </mxGeometry>
        </mxCell>
        <mxCell id="ZvMLKBT_PyKlyKGR0UZF-20" value="Take Photo" style="shape=ellipse;html=1;dashed=0;whitespace=wrap;aspect=fixed;perimeter=ellipsePerimeter;labelBackgroundColor=none;labelBorderColor=none;sketch=0;fillStyle=auto;fontSize=20;fontColor=#000000;fillColor=#FFFFFF;gradientColor=none;" vertex="1" parent="1">
          <mxGeometry x="3050" y="3855" width="150" height="150" as="geometry" />
        </mxCell>
        <mxCell id="ZvMLKBT_PyKlyKGR0UZF-37" style="edgeStyle=orthogonalEdgeStyle;curved=1;orthogonalLoop=1;jettySize=auto;html=1;exitX=1;exitY=1;exitDx=0;exitDy=0;entryX=0.75;entryY=0;entryDx=0;entryDy=0;fontSize=22;fontColor=#000000;" edge="1" parent="1" source="ZvMLKBT_PyKlyKGR0UZF-34" target="ZvMLKBT_PyKlyKGR0UZF-10">
          <mxGeometry relative="1" as="geometry" />
        </mxCell>
        <mxCell id="ZvMLKBT_PyKlyKGR0UZF-38" value="Analyze Result (1f)" style="edgeLabel;html=1;align=center;verticalAlign=middle;resizable=0;points=[];fontSize=22;fontColor=#000000;" vertex="1" connectable="0" parent="ZvMLKBT_PyKlyKGR0UZF-37">
          <mxGeometry x="0.0599" y="2" relative="1" as="geometry">
            <mxPoint x="11" y="-168" as="offset" />
          </mxGeometry>
        </mxCell>
        <mxCell id="ZvMLKBT_PyKlyKGR0UZF-34" value="AI analyze" style="shape=ellipse;html=1;dashed=0;whitespace=wrap;aspect=fixed;perimeter=ellipsePerimeter;labelBackgroundColor=none;labelBorderColor=none;sketch=0;fillStyle=auto;fontSize=22;fontColor=#000000;fillColor=#FFFFFF;gradientColor=none;" vertex="1" parent="1">
          <mxGeometry x="3100" y="3620" width="140" height="140" as="geometry" />
        </mxCell>
        <mxCell id="ZvMLKBT_PyKlyKGR0UZF-41" style="edgeStyle=orthogonalEdgeStyle;curved=1;orthogonalLoop=1;jettySize=auto;html=1;entryX=0.14;entryY=-0.012;entryDx=0;entryDy=0;entryPerimeter=0;fontSize=22;fontColor=#000000;exitX=0.5;exitY=0;exitDx=0;exitDy=0;" edge="1" parent="1" source="ZvMLKBT_PyKlyKGR0UZF-36" target="ZvMLKBT_PyKlyKGR0UZF-11">
          <mxGeometry relative="1" as="geometry">
            <Array as="points">
              <mxPoint x="3545" y="3540" />
              <mxPoint x="2421" y="3540" />
            </Array>
          </mxGeometry>
        </mxCell>
        <mxCell id="ZvMLKBT_PyKlyKGR0UZF-42" value="Matched Products (1h)" style="edgeLabel;html=1;align=center;verticalAlign=middle;resizable=0;points=[];fontSize=22;fontColor=#000000;" vertex="1" connectable="0" parent="ZvMLKBT_PyKlyKGR0UZF-41">
          <mxGeometry x="-0.0831" y="-1" relative="1" as="geometry">
            <mxPoint as="offset" />
          </mxGeometry>
        </mxCell>
        <mxCell id="ZvMLKBT_PyKlyKGR0UZF-36" value="Display Potential &lt;br&gt;Matches" style="shape=ellipse;html=1;dashed=0;whitespace=wrap;aspect=fixed;perimeter=ellipsePerimeter;labelBackgroundColor=none;labelBorderColor=none;sketch=0;fillStyle=auto;fontSize=22;fontColor=#000000;fillColor=#FFFFFF;gradientColor=none;" vertex="1" parent="1">
          <mxGeometry x="3450" y="3650" width="190" height="190" as="geometry" />
        </mxCell>
        <mxCell id="ZvMLKBT_PyKlyKGR0UZF-46" style="edgeStyle=orthogonalEdgeStyle;curved=1;orthogonalLoop=1;jettySize=auto;html=1;exitX=1;exitY=0.5;exitDx=0;exitDy=0;entryX=0.202;entryY=1.022;entryDx=0;entryDy=0;entryPerimeter=0;fontSize=22;fontColor=#000000;" edge="1" parent="1" source="ZvMLKBT_PyKlyKGR0UZF-43" target="ZvMLKBT_PyKlyKGR0UZF-10">
          <mxGeometry relative="1" as="geometry" />
        </mxCell>
        <mxCell id="ZvMLKBT_PyKlyKGR0UZF-47" value="Product ID (2b)" style="edgeLabel;html=1;align=center;verticalAlign=middle;resizable=0;points=[];fontSize=22;fontColor=#000000;" vertex="1" connectable="0" parent="ZvMLKBT_PyKlyKGR0UZF-46">
          <mxGeometry x="-0.2198" y="17" relative="1" as="geometry">
            <mxPoint x="22" y="-76" as="offset" />
          </mxGeometry>
        </mxCell>
        <mxCell id="ZvMLKBT_PyKlyKGR0UZF-53" value="" style="edgeStyle=orthogonalEdgeStyle;curved=1;orthogonalLoop=1;jettySize=auto;html=1;fontSize=22;fontColor=#000000;" edge="1" parent="1" source="ZvMLKBT_PyKlyKGR0UZF-43" target="ZvMLKBT_PyKlyKGR0UZF-52">
          <mxGeometry relative="1" as="geometry" />
        </mxCell>
        <mxCell id="ZvMLKBT_PyKlyKGR0UZF-43" value="Get Product &lt;br&gt;Information" style="shape=ellipse;html=1;dashed=0;whitespace=wrap;aspect=fixed;perimeter=ellipsePerimeter;labelBackgroundColor=none;labelBorderColor=none;sketch=0;fillStyle=auto;fontSize=22;fontColor=#000000;fillColor=#FFFFFF;gradientColor=none;" vertex="1" parent="1">
          <mxGeometry x="2875" y="4340" width="160" height="160" as="geometry" />
        </mxCell>
        <mxCell id="ZvMLKBT_PyKlyKGR0UZF-48" style="edgeStyle=orthogonalEdgeStyle;curved=1;orthogonalLoop=1;jettySize=auto;html=1;exitX=0.66;exitY=1;exitDx=0;exitDy=0;entryX=1;entryY=1;entryDx=0;entryDy=0;fontSize=22;fontColor=#000000;exitPerimeter=0;" edge="1" parent="1" source="ZvMLKBT_PyKlyKGR0UZF-10" target="ZvMLKBT_PyKlyKGR0UZF-43">
          <mxGeometry relative="1" as="geometry">
            <Array as="points">
              <mxPoint x="3297" y="4520" />
              <mxPoint x="3012" y="4520" />
            </Array>
          </mxGeometry>
        </mxCell>
        <mxCell id="ZvMLKBT_PyKlyKGR0UZF-49" value="Product Information (2c)" style="edgeLabel;html=1;align=center;verticalAlign=middle;resizable=0;points=[];fontSize=22;fontColor=#000000;" vertex="1" connectable="0" parent="ZvMLKBT_PyKlyKGR0UZF-48">
          <mxGeometry x="-0.2273" y="-66" relative="1" as="geometry">
            <mxPoint x="39" y="-74" as="offset" />
          </mxGeometry>
        </mxCell>
        <mxCell id="ZvMLKBT_PyKlyKGR0UZF-55" style="edgeStyle=orthogonalEdgeStyle;curved=1;orthogonalLoop=1;jettySize=auto;html=1;entryX=0.127;entryY=1;entryDx=0;entryDy=0;entryPerimeter=0;fontSize=22;fontColor=#000000;" edge="1" parent="1" source="ZvMLKBT_PyKlyKGR0UZF-52" target="ZvMLKBT_PyKlyKGR0UZF-11">
          <mxGeometry relative="1" as="geometry" />
        </mxCell>
        <mxCell id="ZvMLKBT_PyKlyKGR0UZF-52" value="Display Product &lt;br&gt;Information" style="shape=ellipse;html=1;dashed=0;whitespace=wrap;aspect=fixed;perimeter=ellipsePerimeter;labelBackgroundColor=none;labelBorderColor=none;sketch=0;fillStyle=auto;fontSize=22;fontColor=#000000;fillColor=#FFFFFF;gradientColor=none;" vertex="1" parent="1">
          <mxGeometry x="2875" y="4640" width="160" height="160" as="geometry" />
        </mxCell>
        <mxCell id="ZvMLKBT_PyKlyKGR0UZF-54" value="&lt;span style=&quot;color: rgb(0, 0, 0); font-family: Helvetica; font-size: 22px; font-style: normal; font-variant-ligatures: normal; font-variant-caps: normal; font-weight: 400; letter-spacing: normal; orphans: 2; text-align: center; text-indent: 0px; text-transform: none; widows: 2; word-spacing: 0px; -webkit-text-stroke-width: 0px; background-color: rgb(255, 255, 255); text-decoration-thickness: initial; text-decoration-style: initial; text-decoration-color: initial; float: none; display: inline !important;&quot;&gt;Product Information (2d)&lt;/span&gt;" style="text;whiteSpace=wrap;html=1;fontSize=22;fontColor=#000000;" vertex="1" parent="1">
          <mxGeometry x="2840" y="4560" width="270" height="50" as="geometry" />
        </mxCell>
        <mxCell id="ZvMLKBT_PyKlyKGR0UZF-56" value="&lt;span style=&quot;color: rgb(0, 0, 0); font-family: Helvetica; font-size: 22px; font-style: normal; font-variant-ligatures: normal; font-variant-caps: normal; font-weight: 400; letter-spacing: normal; orphans: 2; text-align: center; text-indent: 0px; text-transform: none; widows: 2; word-spacing: 0px; -webkit-text-stroke-width: 0px; background-color: rgb(255, 255, 255); text-decoration-thickness: initial; text-decoration-style: initial; text-decoration-color: initial; float: none; display: inline !important;&quot;&gt;Product Information (2e)&lt;/span&gt;" style="text;whiteSpace=wrap;html=1;fontSize=22;fontColor=#000000;" vertex="1" parent="1">
          <mxGeometry x="2340" y="4440" width="270" height="50" as="geometry" />
        </mxCell>
        <mxCell id="ZvMLKBT_PyKlyKGR0UZF-59" style="edgeStyle=orthogonalEdgeStyle;curved=1;orthogonalLoop=1;jettySize=auto;html=1;exitX=0.5;exitY=0;exitDx=0;exitDy=0;entryX=1;entryY=0.5;entryDx=0;entryDy=0;fontSize=22;fontColor=#000000;" edge="1" parent="1" source="ZvMLKBT_PyKlyKGR0UZF-57" target="ZvMLKBT_PyKlyKGR0UZF-58">
          <mxGeometry relative="1" as="geometry" />
        </mxCell>
        <mxCell id="ZvMLKBT_PyKlyKGR0UZF-57" value="Customer" style="html=1;dashed=0;whitespace=wrap;labelBackgroundColor=none;labelBorderColor=none;sketch=0;fillStyle=auto;fontSize=20;fillColor=#dae8fc;strokeColor=#6c8ebf;" vertex="1" parent="1">
          <mxGeometry x="3770" y="4580" width="180" height="100" as="geometry" />
        </mxCell>
        <mxCell id="ZvMLKBT_PyKlyKGR0UZF-63" style="edgeStyle=orthogonalEdgeStyle;curved=1;orthogonalLoop=1;jettySize=auto;html=1;entryX=1;entryY=0.5;entryDx=0;entryDy=0;fontSize=22;fontColor=#000000;" edge="1" parent="1" source="ZvMLKBT_PyKlyKGR0UZF-58" target="ZvMLKBT_PyKlyKGR0UZF-10">
          <mxGeometry relative="1" as="geometry" />
        </mxCell>
        <mxCell id="ZvMLKBT_PyKlyKGR0UZF-64" value="Product (3b)" style="edgeLabel;html=1;align=center;verticalAlign=middle;resizable=0;points=[];fontSize=22;fontColor=#000000;" vertex="1" connectable="0" parent="ZvMLKBT_PyKlyKGR0UZF-63">
          <mxGeometry x="0.2026" y="5" relative="1" as="geometry">
            <mxPoint y="-1" as="offset" />
          </mxGeometry>
        </mxCell>
        <mxCell id="ZvMLKBT_PyKlyKGR0UZF-58" value="Get Product &lt;br&gt;Notification" style="shape=ellipse;html=1;dashed=0;whitespace=wrap;aspect=fixed;perimeter=ellipsePerimeter;labelBackgroundColor=none;labelBorderColor=none;sketch=0;fillStyle=auto;fontSize=22;fontColor=#000000;fillColor=#FFFFFF;gradientColor=none;" vertex="1" parent="1">
          <mxGeometry x="3565.5" y="4330" width="160" height="160" as="geometry" />
        </mxCell>
        <mxCell id="ZvMLKBT_PyKlyKGR0UZF-61" value="&lt;span style=&quot;color: rgb(0, 0, 0); font-family: Helvetica; font-size: 22px; font-style: normal; font-variant-ligatures: normal; font-variant-caps: normal; font-weight: 400; letter-spacing: normal; orphans: 2; text-align: center; text-indent: 0px; text-transform: none; widows: 2; word-spacing: 0px; -webkit-text-stroke-width: 0px; background-color: rgb(255, 255, 255); text-decoration-thickness: initial; text-decoration-style: initial; text-decoration-color: initial; float: none; display: inline !important;&quot;&gt;Product (3a)&lt;/span&gt;" style="text;whiteSpace=wrap;html=1;fontSize=22;fontColor=#000000;" vertex="1" parent="1">
          <mxGeometry x="3740" y="4470" width="270" height="50" as="geometry" />
        </mxCell>
        <mxCell id="ZvMLKBT_PyKlyKGR0UZF-68" style="edgeStyle=orthogonalEdgeStyle;curved=1;orthogonalLoop=1;jettySize=auto;html=1;entryX=0.5;entryY=1;entryDx=0;entryDy=0;fontSize=22;fontColor=#000000;" edge="1" parent="1" source="ZvMLKBT_PyKlyKGR0UZF-65" target="ZvMLKBT_PyKlyKGR0UZF-57">
          <mxGeometry relative="1" as="geometry" />
        </mxCell>
        <mxCell id="ZvMLKBT_PyKlyKGR0UZF-65" value="Display Product &lt;br&gt;Notification" style="shape=ellipse;html=1;dashed=0;whitespace=wrap;aspect=fixed;perimeter=ellipsePerimeter;labelBackgroundColor=none;labelBorderColor=none;sketch=0;fillStyle=auto;fontSize=22;fontColor=#000000;fillColor=#FFFFFF;gradientColor=none;" vertex="1" parent="1">
          <mxGeometry x="3400" y="4780" width="160" height="160" as="geometry" />
        </mxCell>
        <mxCell id="ZvMLKBT_PyKlyKGR0UZF-70" value="Notification (3d)" style="edgeLabel;html=1;align=center;verticalAlign=middle;resizable=0;points=[];fontSize=22;fontColor=#000000;" vertex="1" connectable="0" parent="1">
          <mxGeometry x="3790" y="4819.999992169147" as="geometry" />
        </mxCell>
        <mxCell id="ZvMLKBT_PyKlyKGR0UZF-75" value="1.Survey&lt;br&gt;2. Photo" style="edgeStyle=orthogonalEdgeStyle;curved=1;orthogonalLoop=1;jettySize=auto;html=1;entryX=0;entryY=0;entryDx=0;entryDy=0;fontSize=22;fontColor=#000000;" edge="1" parent="1" source="ZvMLKBT_PyKlyKGR0UZF-72" target="ZvMLKBT_PyKlyKGR0UZF-74">
          <mxGeometry x="-0.0175" y="10" relative="1" as="geometry">
            <mxPoint as="offset" />
          </mxGeometry>
        </mxCell>
        <mxCell id="ZvMLKBT_PyKlyKGR0UZF-72" value="Customer" style="html=1;dashed=0;whitespace=wrap;labelBackgroundColor=none;labelBorderColor=none;sketch=0;fillStyle=auto;fontSize=20;" vertex="1" parent="1">
          <mxGeometry x="2440" y="5190" width="150" height="80" as="geometry" />
        </mxCell>
        <mxCell id="ZvMLKBT_PyKlyKGR0UZF-73" value="&lt;font style=&quot;font-size: 26px;&quot;&gt;&lt;b&gt;Physical Data Flow&lt;br&gt;&lt;/b&gt;How the&amp;nbsp;&lt;span style=&quot;font-family: Calibri;&quot;&gt;technical implementation characteristics in the system communicates to each other.&amp;nbsp;&lt;/span&gt;&lt;br&gt;&lt;/font&gt;" style="shape=note2;boundedLbl=1;whiteSpace=wrap;html=1;size=25;verticalAlign=top;align=left;labelBackgroundColor=none;labelBorderColor=none;sketch=0;fillStyle=auto;fontSize=20;fillColor=#ffe6cc;strokeColor=#d79b00;" vertex="1" parent="1">
          <mxGeometry x="1975" y="5190" width="380" height="190" as="geometry" />
        </mxCell>
        <mxCell id="ZvMLKBT_PyKlyKGR0UZF-77" style="edgeStyle=orthogonalEdgeStyle;curved=1;orthogonalLoop=1;jettySize=auto;html=1;fontSize=22;fontColor=#000000;entryX=0.5;entryY=0;entryDx=0;entryDy=0;" edge="1" parent="1" source="ZvMLKBT_PyKlyKGR0UZF-74" target="ZvMLKBT_PyKlyKGR0UZF-76">
          <mxGeometry relative="1" as="geometry" />
        </mxCell>
        <mxCell id="ZvMLKBT_PyKlyKGR0UZF-78" value="1.Survey&lt;br&gt;2. Photo" style="edgeLabel;html=1;align=center;verticalAlign=middle;resizable=0;points=[];fontSize=22;fontColor=#000000;" vertex="1" connectable="0" parent="ZvMLKBT_PyKlyKGR0UZF-77">
          <mxGeometry x="-0.2393" y="-11" relative="1" as="geometry">
            <mxPoint x="10" y="4" as="offset" />
          </mxGeometry>
        </mxCell>
        <mxCell id="ZvMLKBT_PyKlyKGR0UZF-121" style="edgeStyle=orthogonalEdgeStyle;curved=1;orthogonalLoop=1;jettySize=auto;html=1;exitX=0;exitY=1;exitDx=0;exitDy=0;entryX=0.25;entryY=1;entryDx=0;entryDy=0;fontSize=26;fontColor=#000000;" edge="1" parent="1" source="ZvMLKBT_PyKlyKGR0UZF-74" target="ZvMLKBT_PyKlyKGR0UZF-72">
          <mxGeometry relative="1" as="geometry" />
        </mxCell>
        <mxCell id="ZvMLKBT_PyKlyKGR0UZF-122" value="&lt;span style=&quot;color: rgba(0, 0, 0, 0); font-family: monospace; font-size: 0px; text-align: start; background-color: rgb(248, 249, 250);&quot;&gt;%3CmxGraphModel%3E%3Croot%3E%3CmxCell%20id%3D%220%22%2F%3E%3CmxCell%20id%3D%221%22%20parent%3D%220%22%2F%3E%3CmxCell%20id%3D%222%22%20value%3D%22%26lt%3Bspan%20style%3D%26quot%3Bfont-size%3A%2022px%3B%26quot%3B%26gt%3B1.%20Matched%20Product%26lt%3B%2Fspan%26gt%3B%26lt%3Bbr%20style%3D%26quot%3Bfont-size%3A%2022px%3B%20background-color%3A%20rgb(248%2C%20249%2C%20250)%3B%26quot%3B%26gt%3B%26lt%3Bspan%20style%3D%26quot%3Bfont-size%3A%2022px%3B%26quot%3B%26gt%3B2.%20Product%20Information%26lt%3Bbr%26gt%3B3.%26lt%3B%2Fspan%26gt%3B%26lt%3Bspan%20style%3D%26quot%3Bfont-size%3A%2022px%3B%26quot%3B%26gt%3BProduct%20Notification%26lt%3B%2Fspan%26gt%3B%26lt%3Bspan%20style%3D%26quot%3Bfont-size%3A%2022px%3B%26quot%3B%26gt%3B%26lt%3Bbr%26gt%3B%26lt%3B%2Fspan%26gt%3B%22%20style%3D%22edgeLabel%3Bhtml%3D1%3Balign%3Dcenter%3BverticalAlign%3Dmiddle%3Bresizable%3D0%3Bpoints%3D%5B%5D%3BfontSize%3D26%3BfontColor%3D%23000000%3B%22%20vertex%3D%221%22%20connectable%3D%220%22%20parent%3D%221%22%3E%3CmxGeometry%20x%3D%222982.030762150547%22%20y%3D%225629.339743794846%22%20as%3D%22geometry%22%2F%3E%3C%2FmxCell%3E%3C%2Froot%3E%3C%2FmxGraphModel%3E&lt;/span&gt;" style="edgeLabel;html=1;align=center;verticalAlign=middle;resizable=0;points=[];fontSize=26;fontColor=#000000;" vertex="1" connectable="0" parent="ZvMLKBT_PyKlyKGR0UZF-121">
          <mxGeometry x="0.1113" y="-39" relative="1" as="geometry">
            <mxPoint x="1" as="offset" />
          </mxGeometry>
        </mxCell>
        <mxCell id="ZvMLKBT_PyKlyKGR0UZF-123" value="&lt;span style=&quot;font-size: 22px;&quot;&gt;1. Matched Product&lt;/span&gt;&lt;br style=&quot;font-size: 22px; background-color: rgb(248, 249, 250);&quot;&gt;&lt;span style=&quot;font-size: 22px;&quot;&gt;2. Product Information&lt;br&gt;3.&lt;/span&gt;&lt;span style=&quot;font-size: 22px;&quot;&gt;Product Notification&lt;/span&gt;" style="edgeLabel;html=1;align=center;verticalAlign=middle;resizable=0;points=[];fontSize=26;fontColor=#000000;" vertex="1" connectable="0" parent="ZvMLKBT_PyKlyKGR0UZF-121">
          <mxGeometry x="0.0051" y="-30" relative="1" as="geometry">
            <mxPoint x="8" y="5" as="offset" />
          </mxGeometry>
        </mxCell>
        <mxCell id="ZvMLKBT_PyKlyKGR0UZF-74" value="BestPurchase&lt;br&gt;Recommendation&lt;br&gt;API" style="shape=ellipse;html=1;dashed=0;whitespace=wrap;aspect=fixed;perimeter=ellipsePerimeter;labelBackgroundColor=none;labelBorderColor=none;sketch=0;fillStyle=auto;fontSize=22;" vertex="1" parent="1">
          <mxGeometry x="2780" y="5250" width="190" height="190" as="geometry" />
        </mxCell>
        <mxCell id="ZvMLKBT_PyKlyKGR0UZF-81" value="" style="edgeStyle=orthogonalEdgeStyle;curved=1;orthogonalLoop=1;jettySize=auto;html=1;fontSize=22;fontColor=#000000;exitX=0;exitY=0.5;exitDx=0;exitDy=0;" edge="1" parent="1" source="ZvMLKBT_PyKlyKGR0UZF-99" target="ZvMLKBT_PyKlyKGR0UZF-80">
          <mxGeometry relative="1" as="geometry" />
        </mxCell>
        <mxCell id="ZvMLKBT_PyKlyKGR0UZF-115" value="Product" style="edgeLabel;html=1;align=center;verticalAlign=middle;resizable=0;points=[];fontSize=22;fontColor=#000000;" vertex="1" connectable="0" parent="ZvMLKBT_PyKlyKGR0UZF-81">
          <mxGeometry x="-0.1935" y="50" relative="1" as="geometry">
            <mxPoint x="-13" y="-10" as="offset" />
          </mxGeometry>
        </mxCell>
        <mxCell id="ZvMLKBT_PyKlyKGR0UZF-87" value="" style="edgeStyle=orthogonalEdgeStyle;curved=1;orthogonalLoop=1;jettySize=auto;html=1;fontSize=22;fontColor=#000000;exitX=1;exitY=0;exitDx=0;exitDy=0;entryX=0;entryY=0.5;entryDx=0;entryDy=0;" edge="1" parent="1" source="ZvMLKBT_PyKlyKGR0UZF-99" target="ZvMLKBT_PyKlyKGR0UZF-86">
          <mxGeometry relative="1" as="geometry" />
        </mxCell>
        <mxCell id="ZvMLKBT_PyKlyKGR0UZF-88" value="Matched Product" style="edgeLabel;html=1;align=center;verticalAlign=middle;resizable=0;points=[];fontSize=22;fontColor=#000000;" vertex="1" connectable="0" parent="ZvMLKBT_PyKlyKGR0UZF-87">
          <mxGeometry x="-0.0799" y="39" relative="1" as="geometry">
            <mxPoint x="44" y="5" as="offset" />
          </mxGeometry>
        </mxCell>
        <mxCell id="ZvMLKBT_PyKlyKGR0UZF-102" style="edgeStyle=orthogonalEdgeStyle;curved=1;orthogonalLoop=1;jettySize=auto;html=1;entryX=0.5;entryY=0;entryDx=0;entryDy=0;fontSize=22;fontColor=#000000;" edge="1" parent="1" source="ZvMLKBT_PyKlyKGR0UZF-76" target="ZvMLKBT_PyKlyKGR0UZF-99">
          <mxGeometry relative="1" as="geometry" />
        </mxCell>
        <mxCell id="ZvMLKBT_PyKlyKGR0UZF-103" value="1.Survey&lt;br&gt;2. Photo&lt;br&gt;3. Analyzed Result" style="edgeLabel;html=1;align=center;verticalAlign=middle;resizable=0;points=[];fontSize=22;fontColor=#000000;" vertex="1" connectable="0" parent="ZvMLKBT_PyKlyKGR0UZF-102">
          <mxGeometry x="-0.1391" y="-29" relative="1" as="geometry">
            <mxPoint y="21" as="offset" />
          </mxGeometry>
        </mxCell>
        <mxCell id="ZvMLKBT_PyKlyKGR0UZF-76" value="BestPurchase &lt;br&gt;AI system&lt;br&gt;Server" style="shape=ellipse;html=1;dashed=0;whitespace=wrap;aspect=fixed;perimeter=ellipsePerimeter;labelBackgroundColor=none;labelBorderColor=none;sketch=0;fillStyle=auto;fontSize=22;" vertex="1" parent="1">
          <mxGeometry x="3130" y="5440" width="160" height="160" as="geometry" />
        </mxCell>
        <mxCell id="ZvMLKBT_PyKlyKGR0UZF-84" value="" style="edgeStyle=orthogonalEdgeStyle;curved=1;orthogonalLoop=1;jettySize=auto;html=1;fontSize=22;fontColor=#000000;entryX=1;entryY=0.5;entryDx=0;entryDy=0;exitX=0.5;exitY=1;exitDx=0;exitDy=0;" edge="1" parent="1" source="ZvMLKBT_PyKlyKGR0UZF-80" target="ZvMLKBT_PyKlyKGR0UZF-85">
          <mxGeometry relative="1" as="geometry">
            <mxPoint x="2720" y="5985" as="targetPoint" />
          </mxGeometry>
        </mxCell>
        <mxCell id="ZvMLKBT_PyKlyKGR0UZF-92" value="Product Notification" style="edgeLabel;html=1;align=center;verticalAlign=middle;resizable=0;points=[];fontSize=22;fontColor=#000000;" vertex="1" connectable="0" parent="ZvMLKBT_PyKlyKGR0UZF-84">
          <mxGeometry x="0.0295" y="-2" relative="1" as="geometry">
            <mxPoint x="2" y="-57" as="offset" />
          </mxGeometry>
        </mxCell>
        <mxCell id="ZvMLKBT_PyKlyKGR0UZF-113" style="edgeStyle=orthogonalEdgeStyle;curved=1;orthogonalLoop=1;jettySize=auto;html=1;entryX=0;entryY=1;entryDx=0;entryDy=0;fontSize=22;fontColor=#000000;" edge="1" parent="1" source="ZvMLKBT_PyKlyKGR0UZF-80" target="ZvMLKBT_PyKlyKGR0UZF-99">
          <mxGeometry relative="1" as="geometry" />
        </mxCell>
        <mxCell id="ZvMLKBT_PyKlyKGR0UZF-116" value="Product Notification" style="edgeLabel;html=1;align=center;verticalAlign=middle;resizable=0;points=[];fontSize=22;fontColor=#000000;" vertex="1" connectable="0" parent="ZvMLKBT_PyKlyKGR0UZF-113">
          <mxGeometry x="-0.3301" y="30" relative="1" as="geometry">
            <mxPoint as="offset" />
          </mxGeometry>
        </mxCell>
        <mxCell id="ZvMLKBT_PyKlyKGR0UZF-80" value="Product&lt;br&gt;Notification&lt;br&gt;API" style="shape=ellipse;html=1;dashed=0;whitespace=wrap;aspect=fixed;perimeter=ellipsePerimeter;labelBackgroundColor=none;labelBorderColor=none;sketch=0;fillStyle=auto;fontSize=22;" vertex="1" parent="1">
          <mxGeometry x="2880" y="5960" width="170" height="170" as="geometry" />
        </mxCell>
        <mxCell id="ZvMLKBT_PyKlyKGR0UZF-93" style="edgeStyle=orthogonalEdgeStyle;curved=1;orthogonalLoop=1;jettySize=auto;html=1;exitX=0.25;exitY=0;exitDx=0;exitDy=0;entryX=0;entryY=0.5;entryDx=0;entryDy=0;fontSize=22;fontColor=#000000;" edge="1" parent="1" source="ZvMLKBT_PyKlyKGR0UZF-85" target="ZvMLKBT_PyKlyKGR0UZF-80">
          <mxGeometry relative="1" as="geometry" />
        </mxCell>
        <mxCell id="ZvMLKBT_PyKlyKGR0UZF-114" value="Product ID" style="edgeLabel;html=1;align=center;verticalAlign=middle;resizable=0;points=[];fontSize=22;fontColor=#000000;" vertex="1" connectable="0" parent="ZvMLKBT_PyKlyKGR0UZF-93">
          <mxGeometry x="-0.2865" y="-22" relative="1" as="geometry">
            <mxPoint x="1" as="offset" />
          </mxGeometry>
        </mxCell>
        <mxCell id="ZvMLKBT_PyKlyKGR0UZF-85" value="Product&lt;br&gt;Notification&lt;br&gt;System" style="html=1;dashed=0;whitespace=wrap;labelBackgroundColor=none;labelBorderColor=none;sketch=0;fillStyle=auto;fontSize=22;" vertex="1" parent="1">
          <mxGeometry x="2600" y="6250" width="250" height="100" as="geometry" />
        </mxCell>
        <mxCell id="ZvMLKBT_PyKlyKGR0UZF-90" style="edgeStyle=orthogonalEdgeStyle;curved=1;orthogonalLoop=1;jettySize=auto;html=1;fontSize=22;fontColor=#000000;exitX=1;exitY=0.5;exitDx=0;exitDy=0;" edge="1" parent="1" source="ZvMLKBT_PyKlyKGR0UZF-86" target="ZvMLKBT_PyKlyKGR0UZF-89">
          <mxGeometry relative="1" as="geometry" />
        </mxCell>
        <mxCell id="ZvMLKBT_PyKlyKGR0UZF-91" value="Matched Product&amp;nbsp;&lt;span style=&quot;&quot;&gt;Information&lt;/span&gt;" style="edgeLabel;html=1;align=center;verticalAlign=middle;resizable=0;points=[];fontSize=22;fontColor=#000000;" vertex="1" connectable="0" parent="ZvMLKBT_PyKlyKGR0UZF-90">
          <mxGeometry x="-0.0581" y="1" relative="1" as="geometry">
            <mxPoint as="offset" />
          </mxGeometry>
        </mxCell>
        <mxCell id="ZvMLKBT_PyKlyKGR0UZF-86" value="Product ID" style="shape=ellipse;html=1;dashed=0;whitespace=wrap;aspect=fixed;perimeter=ellipsePerimeter;labelBackgroundColor=none;labelBorderColor=none;sketch=0;fillStyle=auto;fontSize=22;" vertex="1" parent="1">
          <mxGeometry x="3720" y="5350" width="160" height="160" as="geometry" />
        </mxCell>
        <mxCell id="ZvMLKBT_PyKlyKGR0UZF-109" style="edgeStyle=orthogonalEdgeStyle;curved=1;orthogonalLoop=1;jettySize=auto;html=1;entryX=0.5;entryY=1;entryDx=0;entryDy=0;fontSize=22;fontColor=#000000;" edge="1" parent="1" source="ZvMLKBT_PyKlyKGR0UZF-89" target="ZvMLKBT_PyKlyKGR0UZF-104">
          <mxGeometry relative="1" as="geometry" />
        </mxCell>
        <mxCell id="ZvMLKBT_PyKlyKGR0UZF-89" value="&lt;font style=&quot;font-size: 20px;&quot;&gt;Product List&lt;/font&gt;" style="html=1;dashed=0;whitespace=wrap;shape=partialRectangle;right=0;left=0;labelBackgroundColor=none;labelBorderColor=none;sketch=0;fillStyle=dashed;fontColor=#000000;fillColor=#FFCCFF;gradientColor=none;" vertex="1" parent="1">
          <mxGeometry x="3860" y="6450" width="420" height="90" as="geometry" />
        </mxCell>
        <mxCell id="ZvMLKBT_PyKlyKGR0UZF-105" style="edgeStyle=orthogonalEdgeStyle;curved=1;orthogonalLoop=1;jettySize=auto;html=1;fontSize=22;fontColor=#000000;" edge="1" parent="1" source="ZvMLKBT_PyKlyKGR0UZF-99" target="ZvMLKBT_PyKlyKGR0UZF-104">
          <mxGeometry relative="1" as="geometry" />
        </mxCell>
        <mxCell id="ZvMLKBT_PyKlyKGR0UZF-106" value="1.Survey&lt;br&gt;2. Photo&lt;br&gt;3. Analyzed Result" style="edgeLabel;html=1;align=center;verticalAlign=middle;resizable=0;points=[];fontSize=22;fontColor=#000000;" vertex="1" connectable="0" parent="ZvMLKBT_PyKlyKGR0UZF-105">
          <mxGeometry x="0.3071" y="-34" relative="1" as="geometry">
            <mxPoint y="1" as="offset" />
          </mxGeometry>
        </mxCell>
        <mxCell id="ZvMLKBT_PyKlyKGR0UZF-119" style="edgeStyle=orthogonalEdgeStyle;curved=1;orthogonalLoop=1;jettySize=auto;html=1;exitX=0;exitY=0;exitDx=0;exitDy=0;fontSize=26;fontColor=#000000;entryX=0.335;entryY=0.961;entryDx=0;entryDy=0;entryPerimeter=0;" edge="1" parent="1" source="ZvMLKBT_PyKlyKGR0UZF-99" target="ZvMLKBT_PyKlyKGR0UZF-74">
          <mxGeometry relative="1" as="geometry">
            <mxPoint x="2880" y="5530.000000000001" as="targetPoint" />
          </mxGeometry>
        </mxCell>
        <mxCell id="ZvMLKBT_PyKlyKGR0UZF-120" value="&lt;span style=&quot;font-size: 22px;&quot;&gt;1. Matched Product&lt;/span&gt;&lt;br style=&quot;font-size: 22px; background-color: rgb(248, 249, 250);&quot;&gt;&lt;span style=&quot;font-size: 22px;&quot;&gt;2. Product Information&lt;br&gt;3.&lt;/span&gt;&lt;span style=&quot;font-size: 22px;&quot;&gt;Product Notification&lt;/span&gt;&lt;span style=&quot;font-size: 22px;&quot;&gt;&lt;br&gt;&lt;/span&gt;" style="edgeLabel;html=1;align=center;verticalAlign=middle;resizable=0;points=[];fontSize=26;fontColor=#000000;" vertex="1" connectable="0" parent="ZvMLKBT_PyKlyKGR0UZF-119">
          <mxGeometry x="-0.0058" y="-67" relative="1" as="geometry">
            <mxPoint x="-1" as="offset" />
          </mxGeometry>
        </mxCell>
        <mxCell id="ZvMLKBT_PyKlyKGR0UZF-99" value="BestPurchase&lt;br&gt;Recommendation&lt;br&gt;Server" style="shape=ellipse;html=1;dashed=0;whitespace=wrap;aspect=fixed;perimeter=ellipsePerimeter;labelBackgroundColor=none;labelBorderColor=none;sketch=0;fillStyle=auto;fontSize=22;" vertex="1" parent="1">
          <mxGeometry x="3330" y="5670" width="180" height="180" as="geometry" />
        </mxCell>
        <mxCell id="ZvMLKBT_PyKlyKGR0UZF-107" style="edgeStyle=orthogonalEdgeStyle;curved=1;orthogonalLoop=1;jettySize=auto;html=1;entryX=0.381;entryY=0;entryDx=0;entryDy=0;entryPerimeter=0;fontSize=22;fontColor=#000000;" edge="1" parent="1" source="ZvMLKBT_PyKlyKGR0UZF-104" target="ZvMLKBT_PyKlyKGR0UZF-89">
          <mxGeometry relative="1" as="geometry" />
        </mxCell>
        <mxCell id="ZvMLKBT_PyKlyKGR0UZF-108" value="1.Survey&lt;br&gt;2. Photo&lt;br&gt;3. Analyzed Result" style="edgeLabel;html=1;align=center;verticalAlign=middle;resizable=0;points=[];fontSize=22;fontColor=#000000;" vertex="1" connectable="0" parent="ZvMLKBT_PyKlyKGR0UZF-107">
          <mxGeometry x="-0.5132" y="-46" relative="1" as="geometry">
            <mxPoint x="1" as="offset" />
          </mxGeometry>
        </mxCell>
        <mxCell id="ZvMLKBT_PyKlyKGR0UZF-112" style="edgeStyle=orthogonalEdgeStyle;curved=1;orthogonalLoop=1;jettySize=auto;html=1;exitX=0;exitY=0.5;exitDx=0;exitDy=0;entryX=0.5;entryY=1;entryDx=0;entryDy=0;fontSize=22;fontColor=#000000;" edge="1" parent="1" source="ZvMLKBT_PyKlyKGR0UZF-104" target="ZvMLKBT_PyKlyKGR0UZF-99">
          <mxGeometry relative="1" as="geometry" />
        </mxCell>
        <mxCell id="ZvMLKBT_PyKlyKGR0UZF-104" value="BestPurchase&lt;br&gt;Database&lt;br&gt;Server" style="shape=ellipse;html=1;dashed=0;whitespace=wrap;aspect=fixed;perimeter=ellipsePerimeter;labelBackgroundColor=none;labelBorderColor=none;sketch=0;fillStyle=auto;fontSize=22;" vertex="1" parent="1">
          <mxGeometry x="3600" y="5930" width="180" height="180" as="geometry" />
        </mxCell>
        <mxCell id="ZvMLKBT_PyKlyKGR0UZF-110" value="1. Matched Product&lt;br&gt;2. Product&amp;nbsp;&lt;span style=&quot;&quot;&gt;Information&lt;/span&gt;" style="edgeLabel;html=1;align=center;verticalAlign=middle;resizable=0;points=[];fontSize=22;fontColor=#000000;" vertex="1" connectable="0" parent="1">
          <mxGeometry x="3700" y="6270" as="geometry" />
        </mxCell>
        <mxCell id="ZvMLKBT_PyKlyKGR0UZF-111" value="&lt;meta charset=&quot;utf-8&quot;&gt;&lt;span style=&quot;color: rgb(0, 0, 0); font-family: Helvetica; font-size: 22px; font-style: normal; font-variant-ligatures: normal; font-variant-caps: normal; font-weight: 400; letter-spacing: normal; orphans: 2; text-align: center; text-indent: 0px; text-transform: none; widows: 2; word-spacing: 0px; -webkit-text-stroke-width: 0px; background-color: rgb(255, 255, 255); text-decoration-thickness: initial; text-decoration-style: initial; text-decoration-color: initial; float: none; display: inline !important;&quot;&gt;1. Matched Product&lt;/span&gt;&lt;br style=&quot;color: rgb(0, 0, 0); font-family: Helvetica; font-size: 22px; font-style: normal; font-variant-ligatures: normal; font-variant-caps: normal; font-weight: 400; letter-spacing: normal; orphans: 2; text-align: center; text-indent: 0px; text-transform: none; widows: 2; word-spacing: 0px; -webkit-text-stroke-width: 0px; text-decoration-thickness: initial; text-decoration-style: initial; text-decoration-color: initial;&quot;&gt;&lt;span style=&quot;color: rgb(0, 0, 0); font-family: Helvetica; font-size: 22px; font-style: normal; font-variant-ligatures: normal; font-variant-caps: normal; font-weight: 400; letter-spacing: normal; orphans: 2; text-align: center; text-indent: 0px; text-transform: none; widows: 2; word-spacing: 0px; -webkit-text-stroke-width: 0px; background-color: rgb(255, 255, 255); text-decoration-thickness: initial; text-decoration-style: initial; text-decoration-color: initial; float: none; display: inline !important;&quot;&gt;2. Product Information&lt;/span&gt;" style="text;whiteSpace=wrap;html=1;fontSize=22;fontColor=#000000;" vertex="1" parent="1">
          <mxGeometry x="3350" y="5920" width="250" height="80" as="geometry" />
        </mxCell>
        <mxCell id="ZvMLKBT_PyKlyKGR0UZF-117" value="" style="html=1;dashed=0;whitespace=wrap;labelBackgroundColor=none;labelBorderColor=none;sketch=0;fillStyle=auto;fontSize=26;fontColor=#000000;fillColor=none;gradientColor=none;strokeColor=none;" vertex="1" parent="1">
          <mxGeometry x="3320" y="6540" width="100" height="50" as="geometry" />
        </mxCell>
      </root>
    </mxGraphModel>
  </diagram>
</mxfile>
